<svg xmlns:xlink="http://www.w3.org/1999/xlink" style="fill-opacity:1; color-rendering:auto; color-interpolation:auto; stroke:black; text-rendering:auto; stroke-linecap:square; stroke-miterlimit:10; stroke-opacity:1; shape-rendering:auto; fill:black; stroke-dasharray:none; font-weight:normal; stroke-width:1; font-family:'Dialog'; font-style:normal; stroke-linejoin:miter; font-size:12; stroke-dashoffset:0; image-rendering:auto;" xmlns="http://www.w3.org/2000/svg" id="generatedSVG"><!--Generated by the Batik Graphics2D SVG Generator--><defs id="genericDefs"></defs><g><defs id="defs1"><clipPath clipPathUnits="userSpaceOnUse" id="clipPath1"><path d="M0 0 L400 0 L400 400 L0 400 L0 0 Z"></path></clipPath><clipPath clipPathUnits="userSpaceOnUse" id="clipPath2"><path d="M0 0 L358 0 L358 358 L0 358 L0 0 Z"></path></clipPath></defs><g><rect x="0" y="0" width="400" style="clip-path:url(#clipPath1); stroke:none;" height="400"></rect><line x1="179" x2="179" y1="358" style="clip-path:url(#clipPath1); fill:none; stroke:white;" y2="0"></line><line x1="0" x2="358" y1="179" style="clip-path:url(#clipPath1); fill:none; stroke:white;" y2="179"></line></g><g style="fill:fuchsia; stroke-dasharray:1; stroke-miterlimit:1; stroke-linecap:butt; stroke:fuchsia;"><line x1="0" x2="0" y1="0" style="fill:none; clip-path:url(#clipPath1);" y2="358"></line><text x="0" y="372" style="fill:white; clip-path:url(#clipPath1); stroke:none;" xml:space="preserve">-10.0</text><line x1="35" x2="35" y1="0" style="fill:none; clip-path:url(#clipPath1);" y2="358"></line><text x="35" y="372" style="fill:white; clip-path:url(#clipPath1); stroke:none;" xml:space="preserve">-8.0</text><line x1="71" x2="71" y1="0" style="fill:none; clip-path:url(#clipPath1);" y2="358"></line><text x="71" y="372" style="fill:white; clip-path:url(#clipPath1); stroke:none;" xml:space="preserve">-6.0</text><line x1="107" x2="107" y1="0" style="fill:none; clip-path:url(#clipPath1);" y2="358"></line><text x="107" y="372" style="fill:white; clip-path:url(#clipPath1); stroke:none;" xml:space="preserve">-4.0</text><line x1="143" x2="143" y1="0" style="fill:none; clip-path:url(#clipPath1);" y2="358"></line><text x="143" y="372" style="fill:white; clip-path:url(#clipPath1); stroke:none;" xml:space="preserve">-2.0</text><text x="179" y="372" style="fill:white; clip-path:url(#clipPath1); stroke:none;" xml:space="preserve">0.0</text><line x1="214" x2="214" y1="0" style="fill:none; clip-path:url(#clipPath1);" y2="358"></line><text x="214" y="372" style="fill:white; clip-path:url(#clipPath1); stroke:none;" xml:space="preserve">2.0</text><line x1="250" x2="250" y1="0" style="fill:none; clip-path:url(#clipPath1);" y2="358"></line><text x="250" y="372" style="fill:white; clip-path:url(#clipPath1); stroke:none;" xml:space="preserve">4.0</text><line x1="286" x2="286" y1="0" style="fill:none; clip-path:url(#clipPath1);" y2="358"></line><text x="286" y="372" style="fill:white; clip-path:url(#clipPath1); stroke:none;" xml:space="preserve">6.0</text><line x1="322" x2="322" y1="0" style="fill:none; clip-path:url(#clipPath1);" y2="358"></line><text x="322" y="372" style="fill:white; clip-path:url(#clipPath1); stroke:none;" xml:space="preserve">8.0</text><line x1="358" x2="358" y1="0" style="fill:none; clip-path:url(#clipPath1);" y2="358"></line><text x="358" y="372" style="fill:white; clip-path:url(#clipPath1); stroke:none;" xml:space="preserve">10.0</text><line x1="0" x2="358" y1="358" style="fill:none; clip-path:url(#clipPath1);" y2="358"></line><text x="358" y="355" style="fill:white; clip-path:url(#clipPath1); stroke:none;" xml:space="preserve">-10.0</text><line x1="0" x2="358" y1="322" style="fill:none; clip-path:url(#clipPath1);" y2="322"></line><text x="358" y="320" style="fill:white; clip-path:url(#clipPath1); stroke:none;" xml:space="preserve">-8.0</text><line x1="0" x2="358" y1="286" style="fill:none; clip-path:url(#clipPath1);" y2="286"></line><text x="358" y="286" style="fill:white; clip-path:url(#clipPath1); stroke:none;" xml:space="preserve">-6.0</text><line x1="0" x2="358" y1="250" style="fill:none; clip-path:url(#clipPath1);" y2="250"></line><text x="358" y="252" style="fill:white; clip-path:url(#clipPath1); stroke:none;" xml:space="preserve">-4.0</text><line x1="0" x2="358" y1="214" style="fill:none; clip-path:url(#clipPath1);" y2="214"></line><text x="358" y="217" style="fill:white; clip-path:url(#clipPath1); stroke:none;" xml:space="preserve">-2.0</text><text x="358" y="184" style="fill:white; clip-path:url(#clipPath1); stroke:none;" xml:space="preserve">0.0</text><line x1="0" x2="358" y1="143" style="fill:none; clip-path:url(#clipPath1);" y2="143"></line><text x="358" y="150" style="fill:white; clip-path:url(#clipPath1); stroke:none;" xml:space="preserve">2.0</text><line x1="0" x2="358" y1="107" style="fill:none; clip-path:url(#clipPath1);" y2="107"></line><text x="358" y="115" style="fill:white; clip-path:url(#clipPath1); stroke:none;" xml:space="preserve">4.0</text><line x1="0" x2="358" y1="71" style="fill:none; clip-path:url(#clipPath1);" y2="71"></line><text x="358" y="81" style="fill:white; clip-path:url(#clipPath1); stroke:none;" xml:space="preserve">6.0</text><line x1="0" x2="358" y1="35" style="fill:none; clip-path:url(#clipPath1);" y2="35"></line><text x="358" y="47" style="fill:white; clip-path:url(#clipPath1); stroke:none;" xml:space="preserve">8.0</text><line x1="0" x2="358" y1="0" style="fill:none; clip-path:url(#clipPath1);" y2="0"></line><text x="358" y="14" style="fill:white; clip-path:url(#clipPath1); stroke:none;" xml:space="preserve">10.0</text></g><g style="fill:yellow; text-rendering:optimizeLegibility; stroke-width:2; stroke:yellow;"><path d="M0 169 L0 169 L1 170 L2 171 L3 172 L4 173 L5 174 L6 175 L7 175 L7 176 L8 177 L9 178 L10 178 L10 179 L11 180 L12 181 L13 181 L13 182 L14 183 L15 184 L16 184 L16 185 L17 185 L17 186 L18 186 L19 187 L20 188 L20 189 L21 189 L22 189 L22 190 L23 190 L23 191 L24 191 L25 192 L26 192 L26 193 L27 193 L28 194 L29 194 L30 195 L31 195 L32 195 L32 196 L33 196 L34 196 L35 196 L36 196 L37 196 L38 196 L39 196 L40 196 L41 196 L42 196 L43 196 L44 195 L45 195 L46 195 L47 194 L48 194 L49 193 L50 193 L50 192 L51 192 L51 191 L52 191 L53 191 L53 190 L54 190 L54 189 L55 189 L56 188 L57 187 L58 186 L59 186 L59 185 L60 185 L60 184 L61 183 L62 183 L62 182 L63 182 L63 181 L64 180 L65 180 L65 179 L66 179 L66 178 L67 177 L68 177 L68 176 L69 176 L69 175 L70 175 L71 174 L71 173 L72 173 L72 172 L73 172 L74 171 L75 170 L76 169 L77 169 L77 168 L78 168 L78 167 L79 167 L80 166 L81 165 L82 165 L83 164 L84 164 L84 163 L85 163 L86 163 L86 162 L87 162 L88 162 L89 161 L90 161 L91 161 L92 161 L93 161 L94 161 L95 161 L96 161 L97 161 L98 161 L99 161 L100 162 L101 162 L102 162 L103 163 L104 163 L105 164 L106 164 L106 165 L107 165 L108 165 L108 166 L109 166 L109 167 L110 167 L111 168 L112 169 L113 170 L114 170 L114 171 L115 171 L115 172 L116 172 L117 173 L117 174 L118 174 L118 175 L119 175 L120 176 L121 177 L121 178 L122 178 L123 179 L124 180 L124 181 L125 181 L126 182 L127 183 L127 184 L128 184 L129 185 L130 186 L131 187 L132 187 L132 188 L133 188 L133 189 L134 189 L135 190 L136 191 L137 192 L138 192 L139 193 L140 193 L141 194 L142 194 L142 195 L143 195 L144 195 L145 196 L146 196 L147 196 L148 196 L149 196 L150 196 L151 196 L152 196 L153 196 L154 196 L155 196 L156 195 L157 195 L158 195 L159 194 L160 194 L161 193 L162 193 L163 192 L164 192 L164 191 L165 191 L166 190 L167 189 L168 188 L169 188 L169 187 L170 187 L170 186 L171 186 L172 185 L173 184 L174 183 L175 182 L176 181 L177 180 L178 179 L179 178 L180 177 L181 176 L182 175 L183 174 L184 173 L185 172 L186 171 L187 171 L187 170 L188 170 L188 169 L189 169 L190 168 L191 167 L192 166 L193 166 L193 165 L194 165 L195 164 L196 164 L197 163 L198 163 L199 162 L200 162 L201 162 L202 161 L203 161 L204 161 L205 161 L206 161 L207 161 L208 161 L209 161 L210 161 L211 161 L212 161 L213 162 L214 162 L215 162 L215 163 L216 163 L217 164 L218 164 L219 165 L220 165 L221 166 L222 167 L223 168 L224 168 L224 169 L225 169 L225 170 L226 170 L227 171 L228 172 L229 173 L230 173 L230 174 L231 175 L232 176 L233 176 L233 177 L234 178 L235 179 L236 179 L236 180 L237 181 L238 182 L239 182 L239 183 L240 183 L240 184 L241 185 L242 185 L242 186 L243 186 L243 187 L244 187 L245 188 L246 189 L247 190 L248 190 L248 191 L249 191 L249 192 L250 192 L251 192 L251 193 L252 193 L253 194 L254 194 L255 195 L256 195 L257 195 L258 196 L259 196 L260 196 L261 196 L262 196 L263 196 L264 196 L265 196 L266 196 L267 196 L268 196 L269 195 L270 195 L271 195 L271 194 L272 194 L273 194 L273 193 L274 193 L275 192 L276 192 L277 191 L278 190 L279 190 L279 189 L280 189 L280 188 L281 188 L282 187 L283 186 L284 185 L285 185 L285 184 L286 184 L286 183 L287 182 L288 182 L288 181 L289 181 L289 180 L290 180 L291 179 L291 178 L292 178 L292 177 L293 177 L294 176 L294 175 L295 175 L295 174 L296 174 L297 173 L297 172 L298 172 L298 171 L299 171 L300 170 L301 169 L302 168 L303 168 L303 167 L304 167 L304 166 L305 166 L306 166 L306 165 L307 165 L307 164 L308 164 L309 163 L310 163 L311 162 L312 162 L313 162 L314 161 L315 161 L316 161 L317 161 L318 161 L319 161 L320 161 L321 161 L322 161 L323 161 L324 161 L325 161 L325 162 L326 162 L327 162 L328 163 L329 163 L330 164 L331 164 L331 165 L332 165 L333 166 L334 166 L334 167 L335 167 L335 168 L336 168 L337 168 L337 169 L338 170 L339 171 L340 171 L340 172 L341 172 L341 173 L342 173 L343 174 L344 175 L344 176 L345 176 L346 177 L347 178 L347 179 L348 179 L349 180 L350 181 L350 182 L351 182 L352 183 L353 184 L354 185 L355 186 L356 187 L357 188 M357 188 Z" style="fill:none; fill-rule:evenodd; clip-path:url(#clipPath2);"></path></g></g></svg>