<svg xmlns:xlink="http://www.w3.org/1999/xlink" style="fill-opacity:1; color-rendering:auto; color-interpolation:auto; stroke:black; text-rendering:auto; stroke-linecap:square; stroke-miterlimit:10; stroke-opacity:1; shape-rendering:auto; fill:black; stroke-dasharray:none; font-weight:normal; stroke-width:1; font-family:'Dialog'; font-style:normal; stroke-linejoin:miter; font-size:12; stroke-dashoffset:0; image-rendering:auto;" xmlns="http://www.w3.org/2000/svg" id="generatedSVG"><!--Generated by the Batik Graphics2D SVG Generator--><defs id="genericDefs"></defs><g><defs id="defs1"><clipPath clipPathUnits="userSpaceOnUse" id="clipPath1"><path d="M0 0 L400 0 L400 400 L0 400 L0 0 Z"></path></clipPath><clipPath clipPathUnits="userSpaceOnUse" id="clipPath2"><path d="M0 0 L358 0 L358 358 L0 358 L0 0 Z"></path></clipPath></defs><g><rect x="0" y="0" width="400" style="clip-path:url(#clipPath1); stroke:none;" height="400"></rect><line x1="179" x2="179" y1="358" style="clip-path:url(#clipPath1); fill:none; stroke:white;" y2="0"></line><line x1="0" x2="358" y1="179" style="clip-path:url(#clipPath1); fill:none; stroke:white;" y2="179"></line></g><g style="fill:fuchsia; stroke-dasharray:1; stroke-miterlimit:1; stroke-linecap:butt; stroke:fuchsia;"><line x1="0" x2="0" y1="0" style="fill:none; clip-path:url(#clipPath1);" y2="358"></line><text x="0" y="372" style="fill:white; clip-path:url(#clipPath1); stroke:none;" xml:space="preserve">-10.0</text><line x1="35" x2="35" y1="0" style="fill:none; clip-path:url(#clipPath1);" y2="358"></line><text x="35" y="372" style="fill:white; clip-path:url(#clipPath1); stroke:none;" xml:space="preserve">-8.0</text><line x1="71" x2="71" y1="0" style="fill:none; clip-path:url(#clipPath1);" y2="358"></line><text x="71" y="372" style="fill:white; clip-path:url(#clipPath1); stroke:none;" xml:space="preserve">-6.0</text><line x1="107" x2="107" y1="0" style="fill:none; clip-path:url(#clipPath1);" y2="358"></line><text x="107" y="372" style="fill:white; clip-path:url(#clipPath1); stroke:none;" xml:space="preserve">-4.0</text><line x1="143" x2="143" y1="0" style="fill:none; clip-path:url(#clipPath1);" y2="358"></line><text x="143" y="372" style="fill:white; clip-path:url(#clipPath1); stroke:none;" xml:space="preserve">-2.0</text><text x="179" y="372" style="fill:white; clip-path:url(#clipPath1); stroke:none;" xml:space="preserve">0.0</text><line x1="214" x2="214" y1="0" style="fill:none; clip-path:url(#clipPath1);" y2="358"></line><text x="214" y="372" style="fill:white; clip-path:url(#clipPath1); stroke:none;" xml:space="preserve">2.0</text><line x1="250" x2="250" y1="0" style="fill:none; clip-path:url(#clipPath1);" y2="358"></line><text x="250" y="372" style="fill:white; clip-path:url(#clipPath1); stroke:none;" xml:space="preserve">4.0</text><line x1="286" x2="286" y1="0" style="fill:none; clip-path:url(#clipPath1);" y2="358"></line><text x="286" y="372" style="fill:white; clip-path:url(#clipPath1); stroke:none;" xml:space="preserve">6.0</text><line x1="322" x2="322" y1="0" style="fill:none; clip-path:url(#clipPath1);" y2="358"></line><text x="322" y="372" style="fill:white; clip-path:url(#clipPath1); stroke:none;" xml:space="preserve">8.0</text><line x1="358" x2="358" y1="0" style="fill:none; clip-path:url(#clipPath1);" y2="358"></line><text x="358" y="372" style="fill:white; clip-path:url(#clipPath1); stroke:none;" xml:space="preserve">10.0</text><line x1="0" x2="358" y1="358" style="fill:none; clip-path:url(#clipPath1);" y2="358"></line><text x="358" y="355" style="fill:white; clip-path:url(#clipPath1); stroke:none;" xml:space="preserve">-10.0</text><line x1="0" x2="358" y1="322" style="fill:none; clip-path:url(#clipPath1);" y2="322"></line><text x="358" y="320" style="fill:white; clip-path:url(#clipPath1); stroke:none;" xml:space="preserve">-8.0</text><line x1="0" x2="358" y1="286" style="fill:none; clip-path:url(#clipPath1);" y2="286"></line><text x="358" y="286" style="fill:white; clip-path:url(#clipPath1); stroke:none;" xml:space="preserve">-6.0</text><line x1="0" x2="358" y1="250" style="fill:none; clip-path:url(#clipPath1);" y2="250"></line><text x="358" y="252" style="fill:white; clip-path:url(#clipPath1); stroke:none;" xml:space="preserve">-4.0</text><line x1="0" x2="358" y1="214" style="fill:none; clip-path:url(#clipPath1);" y2="214"></line><text x="358" y="217" style="fill:white; clip-path:url(#clipPath1); stroke:none;" xml:space="preserve">-2.0</text><text x="358" y="184" style="fill:white; clip-path:url(#clipPath1); stroke:none;" xml:space="preserve">0.0</text><line x1="0" x2="358" y1="143" style="fill:none; clip-path:url(#clipPath1);" y2="143"></line><text x="358" y="150" style="fill:white; clip-path:url(#clipPath1); stroke:none;" xml:space="preserve">2.0</text><line x1="0" x2="358" y1="107" style="fill:none; clip-path:url(#clipPath1);" y2="107"></line><text x="358" y="115" style="fill:white; clip-path:url(#clipPath1); stroke:none;" xml:space="preserve">4.0</text><line x1="0" x2="358" y1="71" style="fill:none; clip-path:url(#clipPath1);" y2="71"></line><text x="358" y="81" style="fill:white; clip-path:url(#clipPath1); stroke:none;" xml:space="preserve">6.0</text><line x1="0" x2="358" y1="35" style="fill:none; clip-path:url(#clipPath1);" y2="35"></line><text x="358" y="47" style="fill:white; clip-path:url(#clipPath1); stroke:none;" xml:space="preserve">8.0</text><line x1="0" x2="358" y1="0" style="fill:none; clip-path:url(#clipPath1);" y2="0"></line><text x="358" y="14" style="fill:white; clip-path:url(#clipPath1); stroke:none;" xml:space="preserve">10.0</text></g><g style="fill:yellow; text-rendering:optimizeLegibility; stroke-width:2; stroke:yellow;"><path d="M0 200 L0 199 L1 199 L2 198 L3 198 L4 197 L5 197 L6 197 L7 197 L8 197 L8 196 L9 196 L10 196 L11 196 L12 197 L13 197 L14 197 L15 197 L16 197 L16 198 L17 198 L18 198 L19 199 L20 200 L21 201 L22 201 L22 202 L23 202 L23 203 L24 204 L25 205 L25 206 L26 207 L26 208 L27 210 L28 211 L28 213 L29 215 L29 218 L30 220 L31 223 L31 227 L32 232 L32 237 L33 244 L34 253 L34 265 L35 281 L35 304 L36 343 L37 401 M37 401 ZM40 -1 L40 34 L41 65 L41 84 L42 98 L43 108 L43 116 L44 122 L44 127 L45 132 L46 135 L46 138 L47 141 L47 143 L48 145 L49 146 L49 148 L50 149 L50 150 L51 152 L52 153 L53 154 L53 155 L54 156 L55 157 L56 157 L56 158 L57 158 L58 159 L59 159 L60 159 L60 160 L61 160 L62 160 L63 160 L64 160 L65 161 L66 161 L67 161 L68 161 L68 160 L69 160 L70 160 L71 160 L72 160 L72 159 L73 159 L74 159 L75 158 L76 157 L77 157 L77 156 L78 156 L78 155 L79 155 L80 154 L80 153 L81 152 L81 151 L82 150 L83 149 L83 147 L84 146 L84 144 L85 142 L86 140 L86 137 L87 134 L87 130 L88 126 L89 120 L89 114 L90 105 L90 94 L91 78 L92 55 L92 19 L93 -1 M93 -1 ZM96 401 L96 326 L97 295 L98 274 L98 260 L99 249 L99 241 L100 235 L101 230 L101 226 L102 222 L102 219 L103 217 L103 214 L104 212 L105 211 L105 209 L106 208 L106 207 L107 206 L108 205 L108 204 L109 203 L109 202 L110 202 L111 201 L111 200 L112 200 L112 199 L113 199 L114 199 L114 198 L115 198 L116 198 L117 197 L118 197 L119 197 L120 197 L121 196 L122 196 L123 196 L124 196 L124 197 L125 197 L126 197 L127 197 L128 197 L129 198 L130 198 L131 199 L132 199 L132 200 L133 200 L133 201 L134 201 L135 202 L136 203 L136 204 L137 205 L138 206 L138 207 L139 208 L139 209 L140 211 L141 213 L141 215 L142 217 L142 220 L143 223 L144 226 L144 231 L145 236 L145 243 L146 251 L147 262 L147 277 L148 299 L148 334 L149 401 L150 401 M150 401 ZM152 -1 L153 27 L153 60 L154 81 L154 96 L155 107 L155 115 L156 121 L157 127 L157 131 L158 134 L158 138 L159 140 L160 142 L160 144 L161 146 L161 148 L162 149 L163 150 L163 151 L164 152 L164 153 L165 154 L166 155 L167 156 L167 157 L168 157 L169 157 L169 158 L170 158 L170 159 L171 159 L172 159 L173 160 L174 160 L175 160 L176 160 L177 161 L178 161 L179 161 L180 161 L181 160 L182 160 L183 160 L184 160 L185 159 L186 159 L187 159 L187 158 L188 158 L188 157 L189 157 L190 157 L190 156 L191 155 L192 154 L193 153 L193 152 L194 151 L194 150 L195 149 L196 148 L196 146 L197 144 L197 142 L198 140 L199 138 L199 134 L200 131 L200 127 L201 121 L202 115 L202 107 L203 96 L203 81 L204 60 L204 27 L205 -1 L206 -1 M206 -1 ZM208 401 L209 334 L209 299 L210 277 L210 262 L211 251 L212 243 L212 236 L213 231 L213 226 L214 223 L215 220 L215 217 L216 215 L216 213 L217 211 L218 209 L218 208 L219 207 L219 206 L220 205 L221 204 L221 203 L222 202 L223 201 L224 201 L224 200 L225 200 L225 199 L226 199 L227 198 L228 198 L229 197 L230 197 L231 197 L232 197 L233 197 L233 196 L234 196 L235 196 L236 196 L237 197 L238 197 L239 197 L240 197 L241 198 L242 198 L243 198 L243 199 L244 199 L245 199 L245 200 L246 200 L246 201 L247 202 L248 202 L248 203 L249 204 L249 205 L250 206 L251 207 L251 208 L252 209 L252 211 L253 212 L254 214 L254 217 L255 219 L255 222 L256 226 L256 230 L257 235 L258 241 L258 249 L259 260 L259 274 L260 295 L261 326 L261 401 L262 401 M262 401 ZM264 -1 L265 19 L265 55 L266 78 L267 94 L267 105 L268 114 L268 120 L269 126 L270 130 L270 134 L271 137 L271 140 L272 142 L273 144 L273 146 L274 147 L274 149 L275 150 L276 151 L276 152 L277 153 L277 154 L278 155 L279 155 L279 156 L280 156 L280 157 L281 157 L282 158 L283 159 L284 159 L285 159 L285 160 L286 160 L287 160 L288 160 L289 160 L289 161 L290 161 L291 161 L292 161 L293 160 L294 160 L295 160 L296 160 L297 160 L297 159 L298 159 L299 159 L300 158 L301 158 L301 157 L302 157 L303 156 L304 155 L304 154 L305 153 L306 152 L307 150 L307 149 L308 148 L308 146 L309 145 L310 143 L310 141 L311 138 L311 135 L312 132 L313 127 L313 122 L314 116 L314 108 L315 98 L316 84 L316 65 L317 34 L317 -1 L318 -1 M318 -1 ZM320 401 L321 343 L322 304 L322 281 L323 265 L323 253 L324 244 L325 237 L325 232 L326 227 L326 223 L327 220 L328 218 L328 215 L329 213 L329 211 L330 210 L331 208 L331 207 L332 206 L332 205 L333 204 L334 203 L334 202 L335 202 L335 201 L336 201 L337 200 L338 199 L339 198 L340 198 L341 198 L341 197 L342 197 L343 197 L344 197 L345 197 L346 196 L347 196 L348 196 L349 196 L349 197 L350 197 L351 197 L352 197 L353 197 L354 198 L355 198 L356 199 L357 199 L357 200 M357 200 Z" style="fill:none; fill-rule:evenodd; clip-path:url(#clipPath2);"></path></g></g></svg>