<svg xmlns:xlink="http://www.w3.org/1999/xlink" style="fill-opacity:1; color-rendering:auto; color-interpolation:auto; stroke:black; text-rendering:auto; stroke-linecap:square; stroke-miterlimit:10; stroke-opacity:1; shape-rendering:auto; fill:black; stroke-dasharray:none; font-weight:normal; stroke-width:1; font-family:'Dialog'; font-style:normal; stroke-linejoin:miter; font-size:12; stroke-dashoffset:0; image-rendering:auto;" xmlns="http://www.w3.org/2000/svg" id="generatedSVG"><!--Generated by the Batik Graphics2D SVG Generator--><defs id="genericDefs"></defs><g><defs id="defs1"><clipPath clipPathUnits="userSpaceOnUse" id="clipPath1"><path d="M0 0 L400 0 L400 400 L0 400 L0 0 Z"></path></clipPath><clipPath clipPathUnits="userSpaceOnUse" id="clipPath2"><path d="M0 0 L358 0 L358 358 L0 358 L0 0 Z"></path></clipPath></defs><g><rect x="0" y="0" width="400" style="clip-path:url(#clipPath1); stroke:none;" height="400"></rect><line x1="179" x2="179" y1="358" style="clip-path:url(#clipPath1); fill:none; stroke:white;" y2="0"></line><line x1="0" x2="358" y1="179" style="clip-path:url(#clipPath1); fill:none; stroke:white;" y2="179"></line></g><g style="fill:fuchsia; stroke-dasharray:1; stroke-miterlimit:1; stroke-linecap:butt; stroke:fuchsia;"><line x1="0" x2="0" y1="0" style="fill:none; clip-path:url(#clipPath1);" y2="358"></line><text x="0" y="372" style="fill:white; clip-path:url(#clipPath1); stroke:none;" xml:space="preserve">-10.0</text><line x1="35" x2="35" y1="0" style="fill:none; clip-path:url(#clipPath1);" y2="358"></line><text x="35" y="372" style="fill:white; clip-path:url(#clipPath1); stroke:none;" xml:space="preserve">-8.0</text><line x1="71" x2="71" y1="0" style="fill:none; clip-path:url(#clipPath1);" y2="358"></line><text x="71" y="372" style="fill:white; clip-path:url(#clipPath1); stroke:none;" xml:space="preserve">-6.0</text><line x1="107" x2="107" y1="0" style="fill:none; clip-path:url(#clipPath1);" y2="358"></line><text x="107" y="372" style="fill:white; clip-path:url(#clipPath1); stroke:none;" xml:space="preserve">-4.0</text><line x1="143" x2="143" y1="0" style="fill:none; clip-path:url(#clipPath1);" y2="358"></line><text x="143" y="372" style="fill:white; clip-path:url(#clipPath1); stroke:none;" xml:space="preserve">-2.0</text><text x="179" y="372" style="fill:white; clip-path:url(#clipPath1); stroke:none;" xml:space="preserve">0.0</text><line x1="214" x2="214" y1="0" style="fill:none; clip-path:url(#clipPath1);" y2="358"></line><text x="214" y="372" style="fill:white; clip-path:url(#clipPath1); stroke:none;" xml:space="preserve">2.0</text><line x1="250" x2="250" y1="0" style="fill:none; clip-path:url(#clipPath1);" y2="358"></line><text x="250" y="372" style="fill:white; clip-path:url(#clipPath1); stroke:none;" xml:space="preserve">4.0</text><line x1="286" x2="286" y1="0" style="fill:none; clip-path:url(#clipPath1);" y2="358"></line><text x="286" y="372" style="fill:white; clip-path:url(#clipPath1); stroke:none;" xml:space="preserve">6.0</text><line x1="322" x2="322" y1="0" style="fill:none; clip-path:url(#clipPath1);" y2="358"></line><text x="322" y="372" style="fill:white; clip-path:url(#clipPath1); stroke:none;" xml:space="preserve">8.0</text><line x1="358" x2="358" y1="0" style="fill:none; clip-path:url(#clipPath1);" y2="358"></line><text x="358" y="372" style="fill:white; clip-path:url(#clipPath1); stroke:none;" xml:space="preserve">10.0</text><line x1="0" x2="358" y1="358" style="fill:none; clip-path:url(#clipPath1);" y2="358"></line><text x="358" y="355" style="fill:white; clip-path:url(#clipPath1); stroke:none;" xml:space="preserve">-10.0</text><line x1="0" x2="358" y1="322" style="fill:none; clip-path:url(#clipPath1);" y2="322"></line><text x="358" y="320" style="fill:white; clip-path:url(#clipPath1); stroke:none;" xml:space="preserve">-8.0</text><line x1="0" x2="358" y1="286" style="fill:none; clip-path:url(#clipPath1);" y2="286"></line><text x="358" y="286" style="fill:white; clip-path:url(#clipPath1); stroke:none;" xml:space="preserve">-6.0</text><line x1="0" x2="358" y1="250" style="fill:none; clip-path:url(#clipPath1);" y2="250"></line><text x="358" y="252" style="fill:white; clip-path:url(#clipPath1); stroke:none;" xml:space="preserve">-4.0</text><line x1="0" x2="358" y1="214" style="fill:none; clip-path:url(#clipPath1);" y2="214"></line><text x="358" y="217" style="fill:white; clip-path:url(#clipPath1); stroke:none;" xml:space="preserve">-2.0</text><text x="358" y="184" style="fill:white; clip-path:url(#clipPath1); stroke:none;" xml:space="preserve">0.0</text><line x1="0" x2="358" y1="143" style="fill:none; clip-path:url(#clipPath1);" y2="143"></line><text x="358" y="150" style="fill:white; clip-path:url(#clipPath1); stroke:none;" xml:space="preserve">2.0</text><line x1="0" x2="358" y1="107" style="fill:none; clip-path:url(#clipPath1);" y2="107"></line><text x="358" y="115" style="fill:white; clip-path:url(#clipPath1); stroke:none;" xml:space="preserve">4.0</text><line x1="0" x2="358" y1="71" style="fill:none; clip-path:url(#clipPath1);" y2="71"></line><text x="358" y="81" style="fill:white; clip-path:url(#clipPath1); stroke:none;" xml:space="preserve">6.0</text><line x1="0" x2="358" y1="35" style="fill:none; clip-path:url(#clipPath1);" y2="35"></line><text x="358" y="47" style="fill:white; clip-path:url(#clipPath1); stroke:none;" xml:space="preserve">8.0</text><line x1="0" x2="358" y1="0" style="fill:none; clip-path:url(#clipPath1);" y2="0"></line><text x="358" y="14" style="fill:white; clip-path:url(#clipPath1); stroke:none;" xml:space="preserve">10.0</text></g><g style="fill:yellow; text-rendering:optimizeLegibility; stroke-width:2; stroke:yellow;"><path d="M0 180 L0 180 L1 180 L2 180 L3 180 L4 180 L5 180 L6 180 L7 180 L8 180 L9 180 L10 180 L11 180 L12 180 L13 180 L14 180 L15 180 L16 180 L17 180 L18 181 L19 181 L20 181 L21 181 L22 181 L23 181 L24 181 L25 181 L26 181 L27 181 L28 181 L29 181 L30 181 L31 181 L32 181 L33 181 L34 181 L35 181 L36 181 L37 181 L38 181 L39 181 L40 181 L41 181 L42 181 L43 181 L44 181 L45 181 L46 181 L47 181 L48 181 L49 181 L50 181 L51 181 L52 181 L53 181 L54 181 L55 181 L56 181 L57 181 L58 181 L59 181 L60 181 L61 181 L62 181 L63 181 L64 181 L65 181 L66 181 L67 181 L68 181 L69 181 L70 181 L71 181 L71 182 L72 182 L73 182 L74 182 L75 182 L76 182 L77 182 L78 182 L79 182 L80 182 L81 182 L82 182 L83 182 L84 182 L85 182 L86 182 L87 182 L88 182 L89 182 L90 182 L91 182 L92 182 L93 182 L94 182 L95 182 L96 182 L97 182 L98 182 L98 183 L99 183 L100 183 L101 183 L102 183 L103 183 L104 183 L105 183 L106 183 L107 183 L108 183 L109 183 L110 183 L111 183 L112 183 L113 183 L114 184 L115 184 L116 184 L117 184 L118 184 L119 184 L120 184 L121 184 L122 184 L123 184 L124 184 L124 185 L125 185 L126 185 L127 185 L128 185 L129 185 L130 185 L131 185 L132 186 L133 186 L134 186 L135 186 L136 186 L137 186 L138 187 L139 187 L140 187 L141 187 L142 188 L143 188 L144 188 L145 189 L146 189 L147 189 L148 190 L149 190 L150 190 L150 191 L151 191 L152 192 L153 192 L154 193 L155 194 L156 195 L157 196 L158 197 L158 198 L159 199 L160 201 L161 207 M161 207 ZM196 150 L197 156 L198 158 L199 159 L199 160 L200 161 L201 162 L202 163 L203 164 L204 165 L205 165 L206 166 L207 166 L207 167 L208 167 L209 167 L210 168 L211 168 L212 168 L213 169 L214 169 L215 169 L216 170 L217 170 L218 170 L219 170 L220 171 L221 171 L222 171 L223 171 L224 171 L225 171 L226 172 L227 172 L228 172 L229 172 L230 172 L231 172 L232 172 L233 172 L233 173 L234 173 L235 173 L236 173 L237 173 L238 173 L239 173 L240 173 L241 173 L242 173 L243 173 L244 174 L245 174 L246 174 L247 174 L248 174 L249 174 L250 174 L251 174 L252 174 L253 174 L254 174 L255 174 L256 174 L257 174 L258 174 L259 174 L259 175 L260 175 L261 175 L262 175 L263 175 L264 175 L265 175 L266 175 L267 175 L268 175 L269 175 L270 175 L271 175 L272 175 L273 175 L274 175 L275 175 L276 175 L277 175 L278 175 L279 175 L280 175 L281 175 L282 175 L283 175 L284 175 L285 175 L286 175 L286 176 L287 176 L288 176 L289 176 L290 176 L291 176 L292 176 L293 176 L294 176 L295 176 L296 176 L297 176 L298 176 L299 176 L300 176 L301 176 L302 176 L303 176 L304 176 L305 176 L306 176 L307 176 L308 176 L309 176 L310 176 L311 176 L312 176 L313 176 L314 176 L315 176 L316 176 L317 176 L318 176 L319 176 L320 176 L321 176 L322 176 L323 176 L324 176 L325 176 L326 176 L327 176 L328 176 L329 176 L330 176 L331 176 L332 176 L333 176 L334 176 L335 176 L336 176 L337 176 L338 176 L339 176 L340 177 L341 177 L342 177 L343 177 L344 177 L345 177 L346 177 L347 177 L348 177 L349 177 L350 177 L351 177 L352 177 L353 177 L354 177 L355 177 L356 177 L357 177 M357 177 Z" style="fill:none; fill-rule:evenodd; clip-path:url(#clipPath2);"></path></g></g></svg>