<svg xmlns:xlink="http://www.w3.org/1999/xlink" style="fill-opacity:1; color-rendering:auto; color-interpolation:auto; stroke:black; text-rendering:auto; stroke-linecap:square; stroke-miterlimit:10; stroke-opacity:1; shape-rendering:auto; fill:black; stroke-dasharray:none; font-weight:normal; stroke-width:1; font-family:'Dialog'; font-style:normal; stroke-linejoin:miter; font-size:12; stroke-dashoffset:0; image-rendering:auto;" xmlns="http://www.w3.org/2000/svg" id="generatedSVG"><!--Generated by the Batik Graphics2D SVG Generator--><defs id="genericDefs"></defs><g><defs id="defs1"><clipPath clipPathUnits="userSpaceOnUse" id="clipPath1"><path d="M0 0 L400 0 L400 400 L0 400 L0 0 Z"></path></clipPath><clipPath clipPathUnits="userSpaceOnUse" id="clipPath2"><path d="M0 0 L358 0 L358 358 L0 358 L0 0 Z"></path></clipPath></defs><g><rect x="0" y="0" width="400" style="clip-path:url(#clipPath1); stroke:none;" height="400"></rect><line x1="179" x2="179" y1="358" style="clip-path:url(#clipPath1); fill:none; stroke:white;" y2="0"></line><line x1="0" x2="358" y1="179" style="clip-path:url(#clipPath1); fill:none; stroke:white;" y2="179"></line></g><g style="fill:fuchsia; stroke-dasharray:1; stroke-miterlimit:1; stroke-linecap:butt; stroke:fuchsia;"><line x1="0" x2="0" y1="0" style="fill:none; clip-path:url(#clipPath1);" y2="358"></line><text x="0" y="372" style="fill:white; clip-path:url(#clipPath1); stroke:none;" xml:space="preserve">-10.0</text><line x1="35" x2="35" y1="0" style="fill:none; clip-path:url(#clipPath1);" y2="358"></line><text x="35" y="372" style="fill:white; clip-path:url(#clipPath1); stroke:none;" xml:space="preserve">-8.0</text><line x1="71" x2="71" y1="0" style="fill:none; clip-path:url(#clipPath1);" y2="358"></line><text x="71" y="372" style="fill:white; clip-path:url(#clipPath1); stroke:none;" xml:space="preserve">-6.0</text><line x1="107" x2="107" y1="0" style="fill:none; clip-path:url(#clipPath1);" y2="358"></line><text x="107" y="372" style="fill:white; clip-path:url(#clipPath1); stroke:none;" xml:space="preserve">-4.0</text><line x1="143" x2="143" y1="0" style="fill:none; clip-path:url(#clipPath1);" y2="358"></line><text x="143" y="372" style="fill:white; clip-path:url(#clipPath1); stroke:none;" xml:space="preserve">-2.0</text><text x="179" y="372" style="fill:white; clip-path:url(#clipPath1); stroke:none;" xml:space="preserve">0.0</text><line x1="214" x2="214" y1="0" style="fill:none; clip-path:url(#clipPath1);" y2="358"></line><text x="214" y="372" style="fill:white; clip-path:url(#clipPath1); stroke:none;" xml:space="preserve">2.0</text><line x1="250" x2="250" y1="0" style="fill:none; clip-path:url(#clipPath1);" y2="358"></line><text x="250" y="372" style="fill:white; clip-path:url(#clipPath1); stroke:none;" xml:space="preserve">4.0</text><line x1="286" x2="286" y1="0" style="fill:none; clip-path:url(#clipPath1);" y2="358"></line><text x="286" y="372" style="fill:white; clip-path:url(#clipPath1); stroke:none;" xml:space="preserve">6.0</text><line x1="322" x2="322" y1="0" style="fill:none; clip-path:url(#clipPath1);" y2="358"></line><text x="322" y="372" style="fill:white; clip-path:url(#clipPath1); stroke:none;" xml:space="preserve">8.0</text><line x1="358" x2="358" y1="0" style="fill:none; clip-path:url(#clipPath1);" y2="358"></line><text x="358" y="372" style="fill:white; clip-path:url(#clipPath1); stroke:none;" xml:space="preserve">10.0</text><line x1="0" x2="358" y1="358" style="fill:none; clip-path:url(#clipPath1);" y2="358"></line><text x="358" y="355" style="fill:white; clip-path:url(#clipPath1); stroke:none;" xml:space="preserve">-10.0</text><line x1="0" x2="358" y1="322" style="fill:none; clip-path:url(#clipPath1);" y2="322"></line><text x="358" y="320" style="fill:white; clip-path:url(#clipPath1); stroke:none;" xml:space="preserve">-8.0</text><line x1="0" x2="358" y1="286" style="fill:none; clip-path:url(#clipPath1);" y2="286"></line><text x="358" y="286" style="fill:white; clip-path:url(#clipPath1); stroke:none;" xml:space="preserve">-6.0</text><line x1="0" x2="358" y1="250" style="fill:none; clip-path:url(#clipPath1);" y2="250"></line><text x="358" y="252" style="fill:white; clip-path:url(#clipPath1); stroke:none;" xml:space="preserve">-4.0</text><line x1="0" x2="358" y1="214" style="fill:none; clip-path:url(#clipPath1);" y2="214"></line><text x="358" y="217" style="fill:white; clip-path:url(#clipPath1); stroke:none;" xml:space="preserve">-2.0</text><text x="358" y="184" style="fill:white; clip-path:url(#clipPath1); stroke:none;" xml:space="preserve">0.0</text><line x1="0" x2="358" y1="143" style="fill:none; clip-path:url(#clipPath1);" y2="143"></line><text x="358" y="150" style="fill:white; clip-path:url(#clipPath1); stroke:none;" xml:space="preserve">2.0</text><line x1="0" x2="358" y1="107" style="fill:none; clip-path:url(#clipPath1);" y2="107"></line><text x="358" y="115" style="fill:white; clip-path:url(#clipPath1); stroke:none;" xml:space="preserve">4.0</text><line x1="0" x2="358" y1="71" style="fill:none; clip-path:url(#clipPath1);" y2="71"></line><text x="358" y="81" style="fill:white; clip-path:url(#clipPath1); stroke:none;" xml:space="preserve">6.0</text><line x1="0" x2="358" y1="35" style="fill:none; clip-path:url(#clipPath1);" y2="35"></line><text x="358" y="47" style="fill:white; clip-path:url(#clipPath1); stroke:none;" xml:space="preserve">8.0</text><line x1="0" x2="358" y1="0" style="fill:none; clip-path:url(#clipPath1);" y2="0"></line><text x="358" y="14" style="fill:white; clip-path:url(#clipPath1); stroke:none;" xml:space="preserve">10.0</text></g><g style="fill:yellow; text-rendering:optimizeLegibility; stroke-width:2; stroke:yellow;"><path d="M0 190 L0 189 L1 188 L2 187 L2 186 L3 186 L4 185 L4 184 L5 184 L5 183 L6 182 L7 182 L7 181 L8 180 L9 179 L10 179 L10 178 L11 177 L12 176 L13 176 L13 175 L14 174 L15 173 L16 172 L17 171 L17 170 L18 170 L19 169 L19 168 L20 167 L20 166 L21 166 L22 165 L22 164 L23 163 L23 161 L24 160 L25 159 L25 158 L26 156 L26 155 L27 153 L28 151 L28 149 L29 146 L29 144 L30 141 L31 137 L31 133 L32 128 L32 123 L33 115 L34 106 L34 94 L35 78 L35 54 L36 15 L37 -1 M37 -1 ZM40 401 L40 322 L41 291 L41 271 L42 257 L43 246 L43 238 L44 232 L44 226 L45 222 L46 218 L46 215 L47 212 L47 209 L48 207 L49 205 L49 203 L50 202 L50 200 L51 199 L51 197 L52 196 L53 195 L53 194 L54 193 L54 192 L55 191 L56 190 L56 189 L57 189 L57 188 L58 187 L59 186 L60 185 L60 184 L61 184 L62 183 L62 182 L63 182 L63 181 L64 180 L65 180 L65 179 L66 179 L66 178 L67 177 L68 177 L68 176 L69 176 L69 175 L70 174 L71 174 L71 173 L72 173 L72 172 L73 171 L74 170 L75 169 L75 168 L76 167 L77 167 L77 166 L78 165 L78 164 L79 163 L80 162 L80 160 L81 159 L81 158 L82 156 L83 155 L83 153 L84 151 L84 149 L85 147 L86 144 L86 141 L87 138 L87 134 L88 129 L89 123 L89 116 L90 107 L90 96 L91 80 L92 57 L92 20 L93 -1 M93 -1 ZM96 401 L96 325 L97 293 L98 272 L98 258 L99 247 L99 239 L100 232 L101 227 L101 222 L102 218 L102 215 L103 212 L103 210 L104 207 L105 205 L105 203 L106 202 L106 200 L107 199 L108 197 L108 196 L109 195 L109 194 L110 193 L111 192 L111 191 L112 190 L112 189 L113 189 L114 188 L114 187 L115 186 L116 185 L117 184 L118 183 L118 182 L119 182 L120 181 L121 180 L121 179 L122 179 L123 178 L124 177 L124 176 L125 176 L126 175 L126 174 L127 174 L127 173 L128 173 L129 172 L129 171 L130 170 L131 169 L132 168 L132 167 L133 167 L133 166 L134 165 L135 164 L135 163 L136 162 L136 161 L137 159 L138 158 L138 156 L139 155 L139 153 L140 151 L141 149 L141 147 L142 144 L142 141 L143 138 L144 134 L144 129 L145 124 L145 117 L146 108 L147 97 L147 81 L148 59 L148 24 L149 -1 L150 -1 M150 -1 ZM152 401 L153 329 L153 296 L154 274 L154 259 L155 248 L155 240 L156 233 L157 227 L157 223 L158 219 L158 215 L159 212 L160 210 L160 208 L161 205 L161 204 L162 202 L163 200 L163 199 L164 198 L164 196 L165 195 L166 194 L166 193 L167 192 L167 191 L168 190 L169 189 L170 188 L170 187 L171 186 L172 186 L172 185 L173 184 L174 183 L175 182 L176 181 L177 180 L178 179 L179 178 L180 177 L181 176 L182 175 L183 174 L184 173 L185 172 L185 171 L186 171 L187 170 L187 169 L188 168 L189 167 L190 166 L190 165 L191 164 L191 163 L192 162 L193 161 L193 159 L194 158 L194 157 L195 155 L196 153 L196 152 L197 149 L197 147 L198 145 L199 142 L199 138 L200 134 L200 130 L201 124 L202 117 L202 109 L203 98 L203 83 L204 61 L204 28 L205 -1 L206 -1 M206 -1 ZM208 401 L209 333 L209 298 L210 276 L210 260 L211 249 L212 240 L212 233 L213 228 L213 223 L214 219 L215 216 L215 213 L216 210 L216 208 L217 206 L218 204 L218 202 L219 201 L219 199 L220 198 L221 196 L221 195 L222 194 L222 193 L223 192 L224 191 L224 190 L225 190 L225 189 L226 188 L227 187 L228 186 L228 185 L229 184 L230 184 L230 183 L231 183 L231 182 L232 181 L233 181 L233 180 L234 179 L235 178 L236 178 L236 177 L237 176 L238 175 L239 175 L239 174 L240 173 L241 172 L242 171 L243 170 L243 169 L244 168 L245 168 L245 167 L246 166 L246 165 L247 164 L248 163 L248 162 L249 161 L249 160 L250 158 L251 157 L251 155 L252 154 L252 152 L253 150 L254 147 L254 145 L255 142 L255 139 L256 135 L256 130 L257 125 L258 118 L258 110 L259 99 L259 85 L260 64 L261 32 L261 -1 L262 -1 M262 -1 ZM264 401 L265 337 L265 300 L266 277 L267 261 L267 250 L268 241 L268 234 L269 228 L270 223 L270 219 L271 216 L271 213 L272 210 L273 208 L273 206 L274 204 L274 202 L275 201 L276 199 L276 198 L277 197 L277 195 L278 194 L279 193 L279 192 L280 191 L280 190 L281 190 L282 189 L282 188 L283 187 L284 186 L285 185 L285 184 L286 184 L286 183 L287 183 L288 182 L288 181 L289 181 L289 180 L290 180 L291 179 L291 178 L292 178 L292 177 L293 177 L294 176 L294 175 L295 175 L295 174 L296 173 L297 173 L297 172 L298 171 L299 170 L300 169 L300 168 L301 168 L301 167 L302 166 L303 165 L303 164 L304 163 L304 162 L305 161 L306 160 L306 158 L307 157 L307 155 L308 154 L308 152 L309 150 L310 148 L310 145 L311 142 L311 139 L312 135 L313 131 L313 125 L314 119 L314 111 L315 100 L316 86 L316 66 L317 35 L317 -1 L318 -1 M318 -1 ZM320 401 L321 342 L322 303 L322 279 L323 263 L323 251 L324 242 L325 234 L325 229 L326 224 L326 220 L327 216 L328 213 L328 211 L329 208 L329 206 L330 204 L331 202 L331 201 L332 199 L332 198 L333 197 L334 196 L334 194 L335 193 L335 192 L336 191 L337 191 L337 190 L338 189 L338 188 L339 187 L340 187 L340 186 L341 185 L342 184 L343 183 L344 182 L344 181 L345 181 L346 180 L347 179 L347 178 L348 178 L349 177 L350 176 L350 175 L351 175 L352 174 L352 173 L353 173 L353 172 L354 171 L355 171 L355 170 L356 169 L357 168 L357 167 M357 167 Z" style="fill:none; fill-rule:evenodd; clip-path:url(#clipPath2);"></path></g></g></svg>