<svg xmlns:xlink="http://www.w3.org/1999/xlink" style="fill-opacity:1; color-rendering:auto; color-interpolation:auto; stroke:black; text-rendering:auto; stroke-linecap:square; stroke-miterlimit:10; stroke-opacity:1; shape-rendering:auto; fill:black; stroke-dasharray:none; font-weight:normal; stroke-width:1; font-family:'Dialog'; font-style:normal; stroke-linejoin:miter; font-size:12; stroke-dashoffset:0; image-rendering:auto;" xmlns="http://www.w3.org/2000/svg" id="generatedSVG"><!--Generated by the Batik Graphics2D SVG Generator--><defs id="genericDefs"></defs><g><defs id="defs1"><clipPath clipPathUnits="userSpaceOnUse" id="clipPath1"><path d="M0 0 L400 0 L400 400 L0 400 L0 0 Z"></path></clipPath><clipPath clipPathUnits="userSpaceOnUse" id="clipPath2"><path d="M0 0 L358 0 L358 358 L0 358 L0 0 Z"></path></clipPath></defs><g><rect x="0" y="0" width="400" style="clip-path:url(#clipPath1); stroke:none;" height="400"></rect><line x1="179" x2="179" y1="358" style="clip-path:url(#clipPath1); fill:none; stroke:white;" y2="0"></line><line x1="0" x2="358" y1="179" style="clip-path:url(#clipPath1); fill:none; stroke:white;" y2="179"></line></g><g style="fill:fuchsia; stroke-dasharray:1; stroke-miterlimit:1; stroke-linecap:butt; stroke:fuchsia;"><line x1="0" x2="0" y1="0" style="fill:none; clip-path:url(#clipPath1);" y2="358"></line><text x="0" y="372" style="fill:white; clip-path:url(#clipPath1); stroke:none;" xml:space="preserve">-10.0</text><line x1="35" x2="35" y1="0" style="fill:none; clip-path:url(#clipPath1);" y2="358"></line><text x="35" y="372" style="fill:white; clip-path:url(#clipPath1); stroke:none;" xml:space="preserve">-8.0</text><line x1="71" x2="71" y1="0" style="fill:none; clip-path:url(#clipPath1);" y2="358"></line><text x="71" y="372" style="fill:white; clip-path:url(#clipPath1); stroke:none;" xml:space="preserve">-6.0</text><line x1="107" x2="107" y1="0" style="fill:none; clip-path:url(#clipPath1);" y2="358"></line><text x="107" y="372" style="fill:white; clip-path:url(#clipPath1); stroke:none;" xml:space="preserve">-4.0</text><line x1="143" x2="143" y1="0" style="fill:none; clip-path:url(#clipPath1);" y2="358"></line><text x="143" y="372" style="fill:white; clip-path:url(#clipPath1); stroke:none;" xml:space="preserve">-2.0</text><text x="179" y="372" style="fill:white; clip-path:url(#clipPath1); stroke:none;" xml:space="preserve">0.0</text><line x1="214" x2="214" y1="0" style="fill:none; clip-path:url(#clipPath1);" y2="358"></line><text x="214" y="372" style="fill:white; clip-path:url(#clipPath1); stroke:none;" xml:space="preserve">2.0</text><line x1="250" x2="250" y1="0" style="fill:none; clip-path:url(#clipPath1);" y2="358"></line><text x="250" y="372" style="fill:white; clip-path:url(#clipPath1); stroke:none;" xml:space="preserve">4.0</text><line x1="286" x2="286" y1="0" style="fill:none; clip-path:url(#clipPath1);" y2="358"></line><text x="286" y="372" style="fill:white; clip-path:url(#clipPath1); stroke:none;" xml:space="preserve">6.0</text><line x1="322" x2="322" y1="0" style="fill:none; clip-path:url(#clipPath1);" y2="358"></line><text x="322" y="372" style="fill:white; clip-path:url(#clipPath1); stroke:none;" xml:space="preserve">8.0</text><line x1="358" x2="358" y1="0" style="fill:none; clip-path:url(#clipPath1);" y2="358"></line><text x="358" y="372" style="fill:white; clip-path:url(#clipPath1); stroke:none;" xml:space="preserve">10.0</text><line x1="0" x2="358" y1="358" style="fill:none; clip-path:url(#clipPath1);" y2="358"></line><text x="358" y="355" style="fill:white; clip-path:url(#clipPath1); stroke:none;" xml:space="preserve">-10.0</text><line x1="0" x2="358" y1="322" style="fill:none; clip-path:url(#clipPath1);" y2="322"></line><text x="358" y="320" style="fill:white; clip-path:url(#clipPath1); stroke:none;" xml:space="preserve">-8.0</text><line x1="0" x2="358" y1="286" style="fill:none; clip-path:url(#clipPath1);" y2="286"></line><text x="358" y="286" style="fill:white; clip-path:url(#clipPath1); stroke:none;" xml:space="preserve">-6.0</text><line x1="0" x2="358" y1="250" style="fill:none; clip-path:url(#clipPath1);" y2="250"></line><text x="358" y="252" style="fill:white; clip-path:url(#clipPath1); stroke:none;" xml:space="preserve">-4.0</text><line x1="0" x2="358" y1="214" style="fill:none; clip-path:url(#clipPath1);" y2="214"></line><text x="358" y="217" style="fill:white; clip-path:url(#clipPath1); stroke:none;" xml:space="preserve">-2.0</text><text x="358" y="184" style="fill:white; clip-path:url(#clipPath1); stroke:none;" xml:space="preserve">0.0</text><line x1="0" x2="358" y1="143" style="fill:none; clip-path:url(#clipPath1);" y2="143"></line><text x="358" y="150" style="fill:white; clip-path:url(#clipPath1); stroke:none;" xml:space="preserve">2.0</text><line x1="0" x2="358" y1="107" style="fill:none; clip-path:url(#clipPath1);" y2="107"></line><text x="358" y="115" style="fill:white; clip-path:url(#clipPath1); stroke:none;" xml:space="preserve">4.0</text><line x1="0" x2="358" y1="71" style="fill:none; clip-path:url(#clipPath1);" y2="71"></line><text x="358" y="81" style="fill:white; clip-path:url(#clipPath1); stroke:none;" xml:space="preserve">6.0</text><line x1="0" x2="358" y1="35" style="fill:none; clip-path:url(#clipPath1);" y2="35"></line><text x="358" y="47" style="fill:white; clip-path:url(#clipPath1); stroke:none;" xml:space="preserve">8.0</text><line x1="0" x2="358" y1="0" style="fill:none; clip-path:url(#clipPath1);" y2="0"></line><text x="358" y="14" style="fill:white; clip-path:url(#clipPath1); stroke:none;" xml:space="preserve">10.0</text></g><g style="fill:yellow; text-rendering:optimizeLegibility; stroke-width:2; stroke:yellow;"><path d="M0 194 L0 194 L1 194 L2 195 L3 195 L4 195 L4 196 L5 196 L6 196 L7 196 L8 196 L9 196 L10 196 L11 196 L12 196 L13 196 L14 196 L15 196 L16 195 L17 195 L18 195 L19 194 L20 194 L20 193 L21 193 L22 193 L22 192 L23 192 L23 191 L24 191 L25 191 L25 190 L26 190 L26 189 L27 189 L28 188 L29 187 L30 186 L31 186 L31 185 L32 185 L32 184 L33 183 L34 183 L34 182 L35 182 L35 181 L36 180 L37 180 L37 179 L38 179 L38 178 L39 177 L40 177 L40 176 L41 176 L41 175 L42 175 L43 174 L43 173 L44 173 L44 172 L45 172 L46 171 L47 170 L48 169 L49 169 L49 168 L50 168 L50 167 L51 167 L51 166 L52 166 L53 165 L54 165 L54 164 L55 164 L56 164 L56 163 L57 163 L58 162 L59 162 L60 162 L60 161 L61 161 L62 161 L63 161 L64 161 L65 161 L66 161 L67 161 L68 161 L69 161 L70 161 L71 161 L72 162 L73 162 L74 162 L75 163 L76 163 L77 164 L78 164 L78 165 L79 165 L80 165 L80 166 L81 166 L81 167 L82 167 L83 168 L84 169 L85 170 L86 170 L86 171 L87 171 L87 172 L88 172 L89 173 L89 174 L90 174 L90 175 L91 175 L92 176 L93 177 L93 178 L94 178 L95 179 L96 180 L96 181 L97 181 L98 182 L99 183 L99 184 L100 184 L101 185 L102 186 L103 187 L104 188 L105 188 L105 189 L106 189 L106 190 L107 190 L108 191 L109 192 L110 192 L111 193 L112 193 L112 194 L113 194 L114 194 L114 195 L115 195 L116 195 L117 196 L118 196 L119 196 L120 196 L121 196 L122 196 L123 196 L124 196 L125 196 L126 196 L127 196 L128 195 L129 195 L130 195 L131 194 L132 194 L133 193 L134 193 L135 192 L136 192 L136 191 L137 191 L138 190 L139 189 L140 188 L141 188 L141 187 L142 187 L142 186 L143 186 L144 185 L145 184 L145 183 L146 183 L147 182 L148 181 L149 180 L150 179 L151 178 L152 177 L153 176 L154 175 L155 174 L155 173 L156 173 L157 172 L158 171 L159 170 L160 170 L160 169 L161 169 L161 168 L162 168 L163 167 L164 166 L165 165 L166 165 L167 164 L168 164 L169 163 L170 163 L170 162 L171 162 L172 162 L173 161 L174 161 L175 161 L176 161 L177 161 L178 161 L179 161 L180 161 L181 161 L182 161 L183 161 L184 161 L185 162 L186 162 L187 162 L187 163 L188 163 L189 164 L190 164 L191 165 L192 165 L193 166 L194 167 L195 168 L196 168 L196 169 L197 169 L197 170 L198 170 L199 171 L200 172 L201 173 L202 173 L202 174 L203 175 L204 176 L205 177 L206 178 L207 179 L208 180 L209 181 L210 182 L211 183 L212 183 L212 184 L213 185 L214 186 L215 186 L215 187 L216 187 L216 188 L217 188 L218 189 L219 190 L220 191 L221 191 L221 192 L222 192 L223 193 L224 193 L225 194 L226 194 L227 195 L228 195 L229 195 L230 196 L231 196 L232 196 L233 196 L234 196 L235 196 L236 196 L237 196 L238 196 L239 196 L240 196 L241 195 L242 195 L243 195 L243 194 L244 194 L245 194 L245 193 L246 193 L247 192 L248 192 L249 191 L250 190 L251 190 L251 189 L252 189 L252 188 L253 188 L254 187 L255 186 L256 185 L257 184 L258 184 L258 183 L259 182 L260 181 L261 181 L261 180 L262 179 L263 178 L264 178 L264 177 L265 176 L266 175 L267 175 L267 174 L268 174 L268 173 L269 172 L270 172 L270 171 L271 171 L271 170 L272 170 L273 169 L274 168 L275 167 L276 167 L276 166 L277 166 L277 165 L278 165 L279 165 L279 164 L280 164 L281 163 L282 163 L283 162 L284 162 L285 162 L286 161 L287 161 L288 161 L289 161 L290 161 L291 161 L292 161 L293 161 L294 161 L295 161 L296 161 L297 161 L297 162 L298 162 L299 162 L300 163 L301 163 L301 164 L302 164 L303 164 L303 165 L304 165 L305 166 L306 166 L306 167 L307 167 L307 168 L308 168 L308 169 L309 169 L310 170 L311 171 L312 172 L313 172 L313 173 L314 173 L314 174 L315 175 L316 175 L316 176 L317 176 L317 177 L318 177 L319 178 L319 179 L320 179 L320 180 L321 180 L322 181 L322 182 L323 182 L323 183 L324 183 L325 184 L325 185 L326 185 L326 186 L327 186 L328 187 L329 188 L330 189 L331 189 L331 190 L332 190 L332 191 L333 191 L334 191 L334 192 L335 192 L335 193 L336 193 L337 193 L337 194 L338 194 L339 195 L340 195 L341 195 L342 196 L343 196 L344 196 L345 196 L346 196 L347 196 L348 196 L349 196 L350 196 L351 196 L352 196 L353 196 L353 195 L354 195 L355 195 L356 194 L357 194 M357 194 Z" style="fill:none; fill-rule:evenodd; clip-path:url(#clipPath2);"></path></g></g></svg>