<svg xmlns:xlink="http://www.w3.org/1999/xlink" style="fill-opacity:1; color-rendering:auto; color-interpolation:auto; stroke:black; text-rendering:auto; stroke-linecap:square; stroke-miterlimit:10; stroke-opacity:1; shape-rendering:auto; fill:black; stroke-dasharray:none; font-weight:normal; stroke-width:1; font-family:'Dialog'; font-style:normal; stroke-linejoin:miter; font-size:12; stroke-dashoffset:0; image-rendering:auto;" xmlns="http://www.w3.org/2000/svg" id="generatedSVG"><!--Generated by the Batik Graphics2D SVG Generator--><defs id="genericDefs"></defs><g><defs id="defs1"><clipPath clipPathUnits="userSpaceOnUse" id="clipPath1"><path d="M0 0 L400 0 L400 400 L0 400 L0 0 Z"></path></clipPath><clipPath clipPathUnits="userSpaceOnUse" id="clipPath2"><path d="M0 0 L358 0 L358 358 L0 358 L0 0 Z"></path></clipPath></defs><g><rect x="0" y="0" width="400" style="clip-path:url(#clipPath1); stroke:none;" height="400"></rect><line x1="179" x2="179" y1="358" style="clip-path:url(#clipPath1); fill:none; stroke:white;" y2="0"></line><line x1="0" x2="358" y1="179" style="clip-path:url(#clipPath1); fill:none; stroke:white;" y2="179"></line></g><g style="fill:fuchsia; stroke-dasharray:1; stroke-miterlimit:1; stroke-linecap:butt; stroke:fuchsia;"><line x1="0" x2="0" y1="0" style="fill:none; clip-path:url(#clipPath1);" y2="358"></line><text x="0" y="372" style="fill:white; clip-path:url(#clipPath1); stroke:none;" xml:space="preserve">-10.0</text><line x1="35" x2="35" y1="0" style="fill:none; clip-path:url(#clipPath1);" y2="358"></line><text x="35" y="372" style="fill:white; clip-path:url(#clipPath1); stroke:none;" xml:space="preserve">-8.0</text><line x1="71" x2="71" y1="0" style="fill:none; clip-path:url(#clipPath1);" y2="358"></line><text x="71" y="372" style="fill:white; clip-path:url(#clipPath1); stroke:none;" xml:space="preserve">-6.0</text><line x1="107" x2="107" y1="0" style="fill:none; clip-path:url(#clipPath1);" y2="358"></line><text x="107" y="372" style="fill:white; clip-path:url(#clipPath1); stroke:none;" xml:space="preserve">-4.0</text><line x1="143" x2="143" y1="0" style="fill:none; clip-path:url(#clipPath1);" y2="358"></line><text x="143" y="372" style="fill:white; clip-path:url(#clipPath1); stroke:none;" xml:space="preserve">-2.0</text><text x="179" y="372" style="fill:white; clip-path:url(#clipPath1); stroke:none;" xml:space="preserve">0.0</text><line x1="214" x2="214" y1="0" style="fill:none; clip-path:url(#clipPath1);" y2="358"></line><text x="214" y="372" style="fill:white; clip-path:url(#clipPath1); stroke:none;" xml:space="preserve">2.0</text><line x1="250" x2="250" y1="0" style="fill:none; clip-path:url(#clipPath1);" y2="358"></line><text x="250" y="372" style="fill:white; clip-path:url(#clipPath1); stroke:none;" xml:space="preserve">4.0</text><line x1="286" x2="286" y1="0" style="fill:none; clip-path:url(#clipPath1);" y2="358"></line><text x="286" y="372" style="fill:white; clip-path:url(#clipPath1); stroke:none;" xml:space="preserve">6.0</text><line x1="322" x2="322" y1="0" style="fill:none; clip-path:url(#clipPath1);" y2="358"></line><text x="322" y="372" style="fill:white; clip-path:url(#clipPath1); stroke:none;" xml:space="preserve">8.0</text><line x1="358" x2="358" y1="0" style="fill:none; clip-path:url(#clipPath1);" y2="358"></line><text x="358" y="372" style="fill:white; clip-path:url(#clipPath1); stroke:none;" xml:space="preserve">10.0</text><line x1="0" x2="358" y1="358" style="fill:none; clip-path:url(#clipPath1);" y2="358"></line><text x="358" y="355" style="fill:white; clip-path:url(#clipPath1); stroke:none;" xml:space="preserve">-10.0</text><line x1="0" x2="358" y1="322" style="fill:none; clip-path:url(#clipPath1);" y2="322"></line><text x="358" y="320" style="fill:white; clip-path:url(#clipPath1); stroke:none;" xml:space="preserve">-8.0</text><line x1="0" x2="358" y1="286" style="fill:none; clip-path:url(#clipPath1);" y2="286"></line><text x="358" y="286" style="fill:white; clip-path:url(#clipPath1); stroke:none;" xml:space="preserve">-6.0</text><line x1="0" x2="358" y1="250" style="fill:none; clip-path:url(#clipPath1);" y2="250"></line><text x="358" y="252" style="fill:white; clip-path:url(#clipPath1); stroke:none;" xml:space="preserve">-4.0</text><line x1="0" x2="358" y1="214" style="fill:none; clip-path:url(#clipPath1);" y2="214"></line><text x="358" y="217" style="fill:white; clip-path:url(#clipPath1); stroke:none;" xml:space="preserve">-2.0</text><text x="358" y="184" style="fill:white; clip-path:url(#clipPath1); stroke:none;" xml:space="preserve">0.0</text><line x1="0" x2="358" y1="143" style="fill:none; clip-path:url(#clipPath1);" y2="143"></line><text x="358" y="150" style="fill:white; clip-path:url(#clipPath1); stroke:none;" xml:space="preserve">2.0</text><line x1="0" x2="358" y1="107" style="fill:none; clip-path:url(#clipPath1);" y2="107"></line><text x="358" y="115" style="fill:white; clip-path:url(#clipPath1); stroke:none;" xml:space="preserve">4.0</text><line x1="0" x2="358" y1="71" style="fill:none; clip-path:url(#clipPath1);" y2="71"></line><text x="358" y="81" style="fill:white; clip-path:url(#clipPath1); stroke:none;" xml:space="preserve">6.0</text><line x1="0" x2="358" y1="35" style="fill:none; clip-path:url(#clipPath1);" y2="35"></line><text x="358" y="47" style="fill:white; clip-path:url(#clipPath1); stroke:none;" xml:space="preserve">8.0</text><line x1="0" x2="358" y1="0" style="fill:none; clip-path:url(#clipPath1);" y2="0"></line><text x="358" y="14" style="fill:white; clip-path:url(#clipPath1); stroke:none;" xml:space="preserve">10.0</text></g><g style="fill:yellow; text-rendering:optimizeLegibility; stroke-width:2; stroke:yellow;"><path d="M0 149 L0 149 L1 149 L2 149 L3 149 L4 149 L5 149 L6 149 L7 149 L8 149 L8 148 L9 148 L10 148 L11 148 L12 148 L13 148 L14 148 L15 148 L16 148 L17 148 L18 148 L19 148 L20 148 L21 148 L22 148 L23 148 L24 148 L25 148 L26 148 L27 148 L28 148 L29 148 L30 148 L31 148 L32 148 L33 148 L34 148 L35 148 L36 148 L37 148 L38 148 L39 148 L40 148 L41 148 L42 148 L43 148 L44 148 L45 148 L46 148 L47 148 L48 148 L49 148 L50 148 L51 148 L52 148 L53 148 L54 148 L55 148 L56 148 L57 148 L58 148 L59 148 L60 148 L61 148 L62 148 L63 148 L64 148 L65 148 L66 148 L67 147 L68 147 L69 147 L70 147 L71 147 L72 147 L73 147 L74 147 L75 147 L76 147 L77 147 L78 147 L79 147 L80 147 L81 147 L82 147 L83 147 L84 147 L85 147 L86 147 L87 147 L88 147 L89 147 L90 147 L91 147 L92 147 L93 147 L94 147 L95 147 L96 146 L97 146 L98 146 L99 146 L100 146 L101 146 L102 146 L103 146 L104 146 L105 146 L106 146 L107 146 L108 146 L109 146 L110 146 L111 146 L112 146 L112 145 L113 145 L114 145 L115 145 L116 145 L117 145 L118 145 L119 145 L120 145 L121 145 L122 145 L123 145 L123 144 L124 144 L125 144 L126 144 L127 144 L128 144 L129 144 L130 144 L131 143 L132 143 L133 143 L134 143 L135 143 L136 143 L137 142 L138 142 L139 142 L140 142 L141 142 L141 141 L142 141 L143 141 L144 141 L145 140 L146 140 L147 140 L148 139 L149 139 L150 138 L151 138 L152 137 L153 137 L153 136 L154 136 L154 135 L155 135 L155 134 L156 134 L157 133 L157 132 L158 132 L158 131 L159 129 L160 128 L161 122 M161 122 ZM196 178 L197 173 L198 171 L199 170 L199 169 L200 168 L201 167 L202 166 L203 165 L204 164 L205 164 L206 163 L207 163 L207 162 L208 162 L209 162 L209 161 L210 161 L211 161 L212 161 L212 160 L213 160 L214 160 L215 160 L215 159 L216 159 L217 159 L218 159 L219 159 L219 158 L220 158 L221 158 L222 158 L223 158 L224 158 L225 157 L226 157 L227 157 L228 157 L229 157 L230 157 L231 157 L232 156 L233 156 L234 156 L235 156 L236 156 L237 156 L238 156 L239 156 L240 156 L241 156 L242 156 L242 155 L243 155 L244 155 L245 155 L246 155 L247 155 L248 155 L249 155 L250 155 L251 155 L252 155 L253 155 L254 155 L255 155 L256 155 L257 154 L258 154 L259 154 L260 154 L261 154 L262 154 L263 154 L264 154 L265 154 L266 154 L267 154 L268 154 L269 154 L270 154 L271 154 L272 154 L273 154 L274 154 L275 154 L276 154 L277 154 L278 154 L279 154 L280 154 L281 154 L282 154 L282 153 L283 153 L284 153 L285 153 L286 153 L287 153 L288 153 L289 153 L290 153 L291 153 L292 153 L293 153 L294 153 L295 153 L296 153 L297 153 L298 153 L299 153 L300 153 L301 153 L302 153 L303 153 L304 153 L305 153 L306 153 L307 153 L308 153 L309 153 L310 153 L311 153 L312 153 L313 153 L314 153 L315 153 L316 153 L317 153 L318 153 L319 153 L320 153 L321 153 L322 153 L323 153 L324 153 L325 153 L326 153 L327 153 L328 153 L329 153 L330 153 L331 152 L332 152 L333 152 L334 152 L335 152 L336 152 L337 152 L338 152 L339 152 L340 152 L341 152 L342 152 L343 152 L344 152 L345 152 L346 152 L347 152 L348 152 L349 152 L350 152 L351 152 L352 152 L353 152 L354 152 L355 152 L356 152 L357 152 M357 152 Z" style="fill:none; fill-rule:evenodd; clip-path:url(#clipPath2);"></path></g></g></svg>