<svg xmlns:xlink="http://www.w3.org/1999/xlink" style="fill-opacity:1; color-rendering:auto; color-interpolation:auto; stroke:black; text-rendering:auto; stroke-linecap:square; stroke-miterlimit:10; stroke-opacity:1; shape-rendering:auto; fill:black; stroke-dasharray:none; font-weight:normal; stroke-width:1; font-family:'Dialog'; font-style:normal; stroke-linejoin:miter; font-size:12; stroke-dashoffset:0; image-rendering:auto;" xmlns="http://www.w3.org/2000/svg" id="generatedSVG"><!--Generated by the Batik Graphics2D SVG Generator--><defs id="genericDefs"></defs><g><defs id="defs1"><clipPath clipPathUnits="userSpaceOnUse" id="clipPath1"><path d="M0 0 L400 0 L400 400 L0 400 L0 0 Z"></path></clipPath><clipPath clipPathUnits="userSpaceOnUse" id="clipPath2"><path d="M0 0 L358 0 L358 358 L0 358 L0 0 Z"></path></clipPath></defs><g><rect x="0" y="0" width="400" style="clip-path:url(#clipPath1); stroke:none;" height="400"></rect><line x1="179" x2="179" y1="358" style="clip-path:url(#clipPath1); fill:none; stroke:white;" y2="0"></line><line x1="0" x2="358" y1="179" style="clip-path:url(#clipPath1); fill:none; stroke:white;" y2="179"></line></g><g style="fill:fuchsia; stroke-dasharray:1; stroke-miterlimit:1; stroke-linecap:butt; stroke:fuchsia;"><line x1="0" x2="0" y1="0" style="fill:none; clip-path:url(#clipPath1);" y2="358"></line><text x="0" y="372" style="fill:white; clip-path:url(#clipPath1); stroke:none;" xml:space="preserve">-10.0</text><line x1="35" x2="35" y1="0" style="fill:none; clip-path:url(#clipPath1);" y2="358"></line><text x="35" y="372" style="fill:white; clip-path:url(#clipPath1); stroke:none;" xml:space="preserve">-8.0</text><line x1="71" x2="71" y1="0" style="fill:none; clip-path:url(#clipPath1);" y2="358"></line><text x="71" y="372" style="fill:white; clip-path:url(#clipPath1); stroke:none;" xml:space="preserve">-6.0</text><line x1="107" x2="107" y1="0" style="fill:none; clip-path:url(#clipPath1);" y2="358"></line><text x="107" y="372" style="fill:white; clip-path:url(#clipPath1); stroke:none;" xml:space="preserve">-4.0</text><line x1="143" x2="143" y1="0" style="fill:none; clip-path:url(#clipPath1);" y2="358"></line><text x="143" y="372" style="fill:white; clip-path:url(#clipPath1); stroke:none;" xml:space="preserve">-2.0</text><text x="179" y="372" style="fill:white; clip-path:url(#clipPath1); stroke:none;" xml:space="preserve">0.0</text><line x1="214" x2="214" y1="0" style="fill:none; clip-path:url(#clipPath1);" y2="358"></line><text x="214" y="372" style="fill:white; clip-path:url(#clipPath1); stroke:none;" xml:space="preserve">2.0</text><line x1="250" x2="250" y1="0" style="fill:none; clip-path:url(#clipPath1);" y2="358"></line><text x="250" y="372" style="fill:white; clip-path:url(#clipPath1); stroke:none;" xml:space="preserve">4.0</text><line x1="286" x2="286" y1="0" style="fill:none; clip-path:url(#clipPath1);" y2="358"></line><text x="286" y="372" style="fill:white; clip-path:url(#clipPath1); stroke:none;" xml:space="preserve">6.0</text><line x1="322" x2="322" y1="0" style="fill:none; clip-path:url(#clipPath1);" y2="358"></line><text x="322" y="372" style="fill:white; clip-path:url(#clipPath1); stroke:none;" xml:space="preserve">8.0</text><line x1="358" x2="358" y1="0" style="fill:none; clip-path:url(#clipPath1);" y2="358"></line><text x="358" y="372" style="fill:white; clip-path:url(#clipPath1); stroke:none;" xml:space="preserve">10.0</text><line x1="0" x2="358" y1="358" style="fill:none; clip-path:url(#clipPath1);" y2="358"></line><text x="358" y="355" style="fill:white; clip-path:url(#clipPath1); stroke:none;" xml:space="preserve">-10.0</text><line x1="0" x2="358" y1="322" style="fill:none; clip-path:url(#clipPath1);" y2="322"></line><text x="358" y="320" style="fill:white; clip-path:url(#clipPath1); stroke:none;" xml:space="preserve">-8.0</text><line x1="0" x2="358" y1="286" style="fill:none; clip-path:url(#clipPath1);" y2="286"></line><text x="358" y="286" style="fill:white; clip-path:url(#clipPath1); stroke:none;" xml:space="preserve">-6.0</text><line x1="0" x2="358" y1="250" style="fill:none; clip-path:url(#clipPath1);" y2="250"></line><text x="358" y="252" style="fill:white; clip-path:url(#clipPath1); stroke:none;" xml:space="preserve">-4.0</text><line x1="0" x2="358" y1="214" style="fill:none; clip-path:url(#clipPath1);" y2="214"></line><text x="358" y="217" style="fill:white; clip-path:url(#clipPath1); stroke:none;" xml:space="preserve">-2.0</text><text x="358" y="184" style="fill:white; clip-path:url(#clipPath1); stroke:none;" xml:space="preserve">0.0</text><line x1="0" x2="358" y1="143" style="fill:none; clip-path:url(#clipPath1);" y2="143"></line><text x="358" y="150" style="fill:white; clip-path:url(#clipPath1); stroke:none;" xml:space="preserve">2.0</text><line x1="0" x2="358" y1="107" style="fill:none; clip-path:url(#clipPath1);" y2="107"></line><text x="358" y="115" style="fill:white; clip-path:url(#clipPath1); stroke:none;" xml:space="preserve">4.0</text><line x1="0" x2="358" y1="71" style="fill:none; clip-path:url(#clipPath1);" y2="71"></line><text x="358" y="81" style="fill:white; clip-path:url(#clipPath1); stroke:none;" xml:space="preserve">6.0</text><line x1="0" x2="358" y1="35" style="fill:none; clip-path:url(#clipPath1);" y2="35"></line><text x="358" y="47" style="fill:white; clip-path:url(#clipPath1); stroke:none;" xml:space="preserve">8.0</text><line x1="0" x2="358" y1="0" style="fill:none; clip-path:url(#clipPath1);" y2="0"></line><text x="358" y="14" style="fill:white; clip-path:url(#clipPath1); stroke:none;" xml:space="preserve">10.0</text></g><g style="fill:yellow; text-rendering:optimizeLegibility; stroke-width:2; stroke:yellow;"><path d="M0 197 L0 197 L1 197 L2 197 L3 197 L4 197 L5 197 L6 197 L7 197 L8 197 L9 197 L10 197 L11 197 L12 197 L13 197 L14 197 L15 197 L16 197 L17 197 L18 197 L19 197 L20 197 L21 197 L22 197 L23 197 L24 197 L25 197 L26 197 L27 197 L28 197 L29 197 L30 197 L31 197 L32 197 L33 197 L34 197 L35 197 L36 197 L37 197 L38 197 L39 197 L40 197 L41 197 L42 197 L43 197 L44 197 L45 197 L46 197 L47 197 L48 197 L49 197 L50 197 L51 197 L52 197 L53 197 L54 197 L55 197 L56 197 L57 197 L58 197 L59 197 L60 197 L61 197 L62 197 L63 197 L64 197 L65 197 L66 197 L67 197 L68 197 L69 197 L70 197 L71 197 L72 197 L73 197 L74 197 L75 197 L76 197 L77 197 L78 197 L79 197 L80 197 L81 197 L82 197 L83 197 L84 197 L85 197 L86 197 L87 197 L88 197 L89 197 L90 197 L91 197 L92 197 L93 197 L94 197 L95 197 L96 197 L97 197 L98 197 L99 197 L100 197 L101 197 L102 197 L103 197 L104 197 L105 197 L106 197 L107 197 L108 197 L109 197 L110 197 L111 198 L112 198 L113 198 L114 198 L115 198 L116 198 L117 198 L118 198 L119 198 L120 198 L121 198 L122 198 L123 198 L124 198 L125 198 L126 198 L127 198 L128 198 L129 198 L129 199 L130 199 L131 199 L132 199 L133 199 L134 199 L135 199 L136 199 L137 200 L138 200 L139 200 L140 200 L141 200 L142 201 L143 201 L144 201 L145 202 L146 202 L147 202 L147 203 L148 203 L149 204 L150 204 L150 205 L151 206 L152 207 L153 208 L153 209 L154 210 L154 212 L155 213 L155 215 L156 218 L157 222 L157 227 L158 234 L158 245 L159 265 L160 310 L160 401 M160 401 ZM161 71 L162 121 L163 143 L163 154 L164 161 L164 167 L165 170 L166 173 L166 175 L167 177 L167 179 L168 180 L169 181 L169 182 L170 182 L170 183 L171 184 L172 184 L172 185 L173 185 L174 186 L175 186 L176 187 L177 187 L178 187 L179 188 L180 188 L181 188 L182 188 L183 188 L184 188 L185 188 L186 188 L187 188 L188 188 L189 188 L190 188 L191 188 L192 188 L193 188 L194 188 L195 188 L196 188 L197 187 L198 187 L199 187 L200 186 L201 186 L202 185 L203 185 L203 184 L204 184 L204 183 L205 182 L206 182 L206 181 L207 180 L207 178 L208 177 L209 175 L209 173 L210 170 L210 166 L211 161 L212 154 L212 142 L213 120 L213 67 L214 -1 M214 -1 ZM215 306 L216 263 L216 244 L217 233 L218 226 L218 222 L219 218 L219 215 L220 213 L221 211 L221 210 L222 209 L222 208 L223 207 L224 206 L224 205 L225 205 L225 204 L226 204 L227 203 L228 203 L228 202 L229 202 L230 202 L231 201 L232 201 L233 201 L234 200 L235 200 L236 200 L237 200 L238 200 L239 199 L240 199 L241 199 L242 199 L243 199 L244 199 L245 199 L246 199 L246 198 L247 198 L248 198 L249 198 L250 198 L251 198 L252 198 L253 198 L254 198 L255 198 L256 198 L257 198 L258 198 L259 198 L260 198 L261 198 L262 198 L263 198 L264 198 L265 197 L266 197 L267 197 L268 197 L269 197 L270 197 L271 197 L272 197 L273 197 L274 197 L275 197 L276 197 L277 197 L278 197 L279 197 L280 197 L281 197 L282 197 L283 197 L284 197 L285 197 L286 197 L287 197 L288 197 L289 197 L290 197 L291 197 L292 197 L293 197 L294 197 L295 197 L296 197 L297 197 L298 197 L299 197 L300 197 L301 197 L302 197 L303 197 L304 197 L305 197 L306 197 L307 197 L308 197 L309 197 L310 197 L311 197 L312 197 L313 197 L314 197 L315 197 L316 197 L317 197 L318 197 L319 197 L320 197 L321 197 L322 197 L323 197 L324 197 L325 197 L326 197 L327 197 L328 197 L329 197 L330 197 L331 197 L332 197 L333 197 L334 197 L335 197 L336 197 L337 197 L338 197 L339 197 L340 197 L341 197 L342 197 L343 197 L344 197 L345 197 L346 197 L347 197 L348 197 L349 197 L350 197 L351 197 L352 197 L353 197 L354 197 L355 197 L356 197 L357 197 M357 197 Z" style="fill:none; fill-rule:evenodd; clip-path:url(#clipPath2);"></path></g></g></svg>