<svg xmlns:xlink="http://www.w3.org/1999/xlink" style="fill-opacity:1; color-rendering:auto; color-interpolation:auto; stroke:black; text-rendering:auto; stroke-linecap:square; stroke-miterlimit:10; stroke-opacity:1; shape-rendering:auto; fill:black; stroke-dasharray:none; font-weight:normal; stroke-width:1; font-family:'Dialog'; font-style:normal; stroke-linejoin:miter; font-size:12; stroke-dashoffset:0; image-rendering:auto;" xmlns="http://www.w3.org/2000/svg" id="generatedSVG"><!--Generated by the Batik Graphics2D SVG Generator--><defs id="genericDefs"></defs><g><defs id="defs1"><clipPath clipPathUnits="userSpaceOnUse" id="clipPath1"><path d="M0 0 L400 0 L400 400 L0 400 L0 0 Z"></path></clipPath><clipPath clipPathUnits="userSpaceOnUse" id="clipPath2"><path d="M0 0 L358 0 L358 358 L0 358 L0 0 Z"></path></clipPath></defs><g><rect x="0" y="0" width="400" style="clip-path:url(#clipPath1); stroke:none;" height="400"></rect><line x1="179" x2="179" y1="358" style="clip-path:url(#clipPath1); fill:none; stroke:white;" y2="0"></line><line x1="0" x2="358" y1="179" style="clip-path:url(#clipPath1); fill:none; stroke:white;" y2="179"></line></g><g style="fill:fuchsia; stroke-dasharray:1; stroke-miterlimit:1; stroke-linecap:butt; stroke:fuchsia;"><line x1="0" x2="0" y1="0" style="fill:none; clip-path:url(#clipPath1);" y2="358"></line><text x="0" y="372" style="fill:white; clip-path:url(#clipPath1); stroke:none;" xml:space="preserve">-10.0</text><line x1="35" x2="35" y1="0" style="fill:none; clip-path:url(#clipPath1);" y2="358"></line><text x="35" y="372" style="fill:white; clip-path:url(#clipPath1); stroke:none;" xml:space="preserve">-8.0</text><line x1="71" x2="71" y1="0" style="fill:none; clip-path:url(#clipPath1);" y2="358"></line><text x="71" y="372" style="fill:white; clip-path:url(#clipPath1); stroke:none;" xml:space="preserve">-6.0</text><line x1="107" x2="107" y1="0" style="fill:none; clip-path:url(#clipPath1);" y2="358"></line><text x="107" y="372" style="fill:white; clip-path:url(#clipPath1); stroke:none;" xml:space="preserve">-4.0</text><line x1="143" x2="143" y1="0" style="fill:none; clip-path:url(#clipPath1);" y2="358"></line><text x="143" y="372" style="fill:white; clip-path:url(#clipPath1); stroke:none;" xml:space="preserve">-2.0</text><text x="179" y="372" style="fill:white; clip-path:url(#clipPath1); stroke:none;" xml:space="preserve">0.0</text><line x1="214" x2="214" y1="0" style="fill:none; clip-path:url(#clipPath1);" y2="358"></line><text x="214" y="372" style="fill:white; clip-path:url(#clipPath1); stroke:none;" xml:space="preserve">2.0</text><line x1="250" x2="250" y1="0" style="fill:none; clip-path:url(#clipPath1);" y2="358"></line><text x="250" y="372" style="fill:white; clip-path:url(#clipPath1); stroke:none;" xml:space="preserve">4.0</text><line x1="286" x2="286" y1="0" style="fill:none; clip-path:url(#clipPath1);" y2="358"></line><text x="286" y="372" style="fill:white; clip-path:url(#clipPath1); stroke:none;" xml:space="preserve">6.0</text><line x1="322" x2="322" y1="0" style="fill:none; clip-path:url(#clipPath1);" y2="358"></line><text x="322" y="372" style="fill:white; clip-path:url(#clipPath1); stroke:none;" xml:space="preserve">8.0</text><line x1="358" x2="358" y1="0" style="fill:none; clip-path:url(#clipPath1);" y2="358"></line><text x="358" y="372" style="fill:white; clip-path:url(#clipPath1); stroke:none;" xml:space="preserve">10.0</text><line x1="0" x2="358" y1="358" style="fill:none; clip-path:url(#clipPath1);" y2="358"></line><text x="358" y="355" style="fill:white; clip-path:url(#clipPath1); stroke:none;" xml:space="preserve">-10.0</text><line x1="0" x2="358" y1="322" style="fill:none; clip-path:url(#clipPath1);" y2="322"></line><text x="358" y="320" style="fill:white; clip-path:url(#clipPath1); stroke:none;" xml:space="preserve">-8.0</text><line x1="0" x2="358" y1="286" style="fill:none; clip-path:url(#clipPath1);" y2="286"></line><text x="358" y="286" style="fill:white; clip-path:url(#clipPath1); stroke:none;" xml:space="preserve">-6.0</text><line x1="0" x2="358" y1="250" style="fill:none; clip-path:url(#clipPath1);" y2="250"></line><text x="358" y="252" style="fill:white; clip-path:url(#clipPath1); stroke:none;" xml:space="preserve">-4.0</text><line x1="0" x2="358" y1="214" style="fill:none; clip-path:url(#clipPath1);" y2="214"></line><text x="358" y="217" style="fill:white; clip-path:url(#clipPath1); stroke:none;" xml:space="preserve">-2.0</text><text x="358" y="184" style="fill:white; clip-path:url(#clipPath1); stroke:none;" xml:space="preserve">0.0</text><line x1="0" x2="358" y1="143" style="fill:none; clip-path:url(#clipPath1);" y2="143"></line><text x="358" y="150" style="fill:white; clip-path:url(#clipPath1); stroke:none;" xml:space="preserve">2.0</text><line x1="0" x2="358" y1="107" style="fill:none; clip-path:url(#clipPath1);" y2="107"></line><text x="358" y="115" style="fill:white; clip-path:url(#clipPath1); stroke:none;" xml:space="preserve">4.0</text><line x1="0" x2="358" y1="71" style="fill:none; clip-path:url(#clipPath1);" y2="71"></line><text x="358" y="81" style="fill:white; clip-path:url(#clipPath1); stroke:none;" xml:space="preserve">6.0</text><line x1="0" x2="358" y1="35" style="fill:none; clip-path:url(#clipPath1);" y2="35"></line><text x="358" y="47" style="fill:white; clip-path:url(#clipPath1); stroke:none;" xml:space="preserve">8.0</text><line x1="0" x2="358" y1="0" style="fill:none; clip-path:url(#clipPath1);" y2="0"></line><text x="358" y="14" style="fill:white; clip-path:url(#clipPath1); stroke:none;" xml:space="preserve">10.0</text></g><g style="fill:yellow; text-rendering:optimizeLegibility; stroke-width:2; stroke:yellow;"><path d="M0 206 L0 208 L1 211 L1 213 L2 216 L2 220 L3 224 L4 229 L4 235 L5 242 L5 251 L6 263 L7 280 L7 304 L8 344 L8 401 L9 401 M9 401 ZM11 -1 L12 37 L13 67 L13 87 L14 101 L14 111 L15 119 L16 126 L16 131 L17 135 L17 139 L18 142 L19 145 L19 148 L20 150 L20 152 L21 154 L22 155 L22 157 L23 158 L23 160 L24 161 L25 162 L25 163 L26 164 L26 165 L27 166 L28 167 L28 168 L29 168 L29 169 L30 170 L31 171 L32 172 L32 173 L33 173 L34 174 L34 175 L35 175 L35 176 L36 177 L37 177 L37 178 L38 178 L38 179 L39 180 L40 180 L40 181 L41 181 L41 182 L42 183 L43 183 L43 184 L44 185 L45 186 L46 187 L47 188 L47 189 L48 190 L49 191 L50 192 L50 193 L51 194 L51 195 L52 197 L53 198 L53 199 L54 201 L54 202 L55 204 L56 206 L56 208 L57 210 L57 213 L58 216 L59 220 L59 224 L60 228 L60 234 L61 241 L62 250 L62 262 L63 278 L63 302 L64 339 L65 401 M65 401 ZM68 -1 L68 34 L69 65 L69 85 L70 100 L71 110 L71 118 L72 125 L72 130 L73 135 L74 139 L74 142 L75 145 L75 147 L76 150 L77 152 L77 154 L78 155 L78 157 L79 158 L80 160 L80 161 L81 162 L81 163 L82 164 L83 165 L83 166 L84 167 L84 168 L85 168 L86 169 L86 170 L87 171 L88 172 L89 173 L90 174 L90 175 L91 175 L92 176 L93 177 L93 178 L94 178 L95 179 L96 180 L96 181 L97 181 L98 182 L98 183 L99 183 L99 184 L100 184 L101 185 L101 186 L102 187 L103 188 L103 189 L104 190 L105 190 L105 191 L106 192 L106 193 L107 194 L108 195 L108 197 L109 198 L109 199 L110 201 L111 202 L111 204 L112 206 L112 208 L113 210 L114 213 L114 216 L115 219 L115 223 L116 228 L117 234 L117 241 L118 249 L118 261 L119 277 L120 299 L120 335 L121 401 M121 401 ZM124 -1 L124 30 L125 63 L126 84 L126 98 L127 109 L127 118 L128 125 L129 130 L129 135 L130 138 L130 142 L131 145 L132 147 L132 150 L133 152 L133 153 L134 155 L135 157 L135 158 L136 159 L136 161 L137 162 L138 163 L138 164 L139 165 L139 166 L140 167 L141 168 L142 169 L142 170 L143 171 L144 171 L144 172 L145 173 L146 174 L147 175 L148 176 L149 177 L150 178 L151 179 L152 180 L153 181 L154 182 L155 183 L155 184 L156 184 L157 185 L157 186 L158 186 L158 187 L159 188 L160 189 L160 190 L161 190 L161 191 L162 192 L163 193 L163 194 L164 195 L164 196 L165 198 L166 199 L166 200 L167 202 L167 204 L168 206 L169 208 L169 210 L170 213 L170 215 L171 219 L172 223 L172 227 L173 233 L173 240 L174 248 L175 260 L175 275 L176 297 L176 331 L177 401 L178 401 M178 401 ZM180 -1 L181 26 L181 60 L182 82 L182 97 L183 109 L184 117 L184 124 L185 130 L185 134 L186 138 L187 142 L187 144 L188 147 L188 149 L189 151 L190 153 L190 155 L191 157 L191 158 L192 159 L193 161 L193 162 L194 163 L194 164 L195 165 L196 166 L196 167 L197 167 L197 168 L198 169 L199 170 L199 171 L200 171 L200 172 L201 173 L202 173 L202 174 L203 175 L204 176 L205 177 L206 178 L207 179 L208 180 L209 181 L210 182 L211 183 L212 184 L213 185 L213 186 L214 186 L215 187 L215 188 L216 189 L217 190 L218 191 L218 192 L219 193 L219 194 L220 195 L221 196 L221 198 L222 199 L222 200 L223 202 L224 204 L224 205 L225 207 L225 210 L226 212 L227 215 L227 219 L228 222 L228 227 L229 232 L230 239 L230 248 L231 259 L231 273 L232 294 L233 327 L233 401 L234 401 M234 401 ZM236 -1 L237 22 L237 58 L238 80 L239 96 L239 108 L240 116 L240 123 L241 129 L242 134 L242 138 L243 141 L243 144 L244 147 L245 149 L245 151 L246 153 L246 155 L247 156 L248 158 L248 159 L249 160 L249 162 L250 163 L251 164 L251 165 L252 166 L252 167 L253 167 L254 168 L254 169 L255 170 L256 171 L256 172 L257 173 L258 173 L258 174 L259 174 L259 175 L260 176 L261 176 L261 177 L262 178 L263 179 L264 179 L264 180 L265 181 L266 182 L267 182 L267 183 L268 184 L269 185 L270 186 L271 187 L271 188 L272 189 L273 189 L273 190 L274 191 L274 192 L275 193 L276 194 L276 195 L277 196 L277 197 L278 199 L279 200 L279 202 L280 203 L280 205 L281 207 L282 210 L282 212 L283 215 L283 218 L284 222 L285 227 L285 232 L286 239 L286 247 L287 257 L288 272 L288 292 L289 323 L289 401 L290 401 M290 401 ZM292 -1 L293 18 L294 55 L294 79 L295 95 L295 107 L296 116 L297 123 L297 129 L298 133 L298 137 L299 141 L300 144 L300 147 L301 149 L301 151 L302 153 L303 155 L303 156 L304 158 L304 159 L305 160 L306 162 L306 163 L307 164 L307 165 L308 166 L309 167 L310 168 L310 169 L311 170 L312 171 L313 172 L314 173 L314 174 L315 174 L316 175 L316 176 L317 176 L317 177 L318 177 L319 178 L319 179 L320 179 L320 180 L321 180 L322 181 L322 182 L323 182 L323 183 L324 184 L325 184 L325 185 L326 186 L327 187 L328 188 L328 189 L329 189 L329 190 L330 191 L331 192 L331 193 L332 194 L332 195 L333 196 L334 197 L334 199 L335 200 L335 202 L336 203 L337 205 L337 207 L338 209 L338 212 L339 215 L340 218 L340 222 L341 226 L341 231 L342 238 L343 246 L343 256 L344 270 L344 290 L345 320 L346 401 M346 401 ZM349 -1 L349 13 L350 53 L350 77 L351 94 L352 106 L352 115 L353 122 L353 128 L354 133 L355 137 L355 141 L356 144 L356 146 L357 149 L357 151 M357 151 Z" style="fill:none; fill-rule:evenodd; clip-path:url(#clipPath2);"></path></g></g></svg>