<svg xmlns:xlink="http://www.w3.org/1999/xlink" style="fill-opacity:1; color-rendering:auto; color-interpolation:auto; stroke:black; text-rendering:auto; stroke-linecap:square; stroke-miterlimit:10; stroke-opacity:1; shape-rendering:auto; fill:black; stroke-dasharray:none; font-weight:normal; stroke-width:1; font-family:'Dialog'; font-style:normal; stroke-linejoin:miter; font-size:12; stroke-dashoffset:0; image-rendering:auto;" xmlns="http://www.w3.org/2000/svg" id="generatedSVG"><!--Generated by the Batik Graphics2D SVG Generator--><defs id="genericDefs"></defs><g><defs id="defs1"><clipPath clipPathUnits="userSpaceOnUse" id="clipPath1"><path d="M0 0 L400 0 L400 400 L0 400 L0 0 Z"></path></clipPath><clipPath clipPathUnits="userSpaceOnUse" id="clipPath2"><path d="M0 0 L358 0 L358 358 L0 358 L0 0 Z"></path></clipPath></defs><g><rect x="0" y="0" width="400" style="clip-path:url(#clipPath1); stroke:none;" height="400"></rect><line x1="179" x2="179" y1="358" style="clip-path:url(#clipPath1); fill:none; stroke:white;" y2="0"></line><line x1="0" x2="358" y1="179" style="clip-path:url(#clipPath1); fill:none; stroke:white;" y2="179"></line></g><g style="fill:fuchsia; stroke-dasharray:1; stroke-miterlimit:1; stroke-linecap:butt; stroke:fuchsia;"><line x1="0" x2="0" y1="0" style="fill:none; clip-path:url(#clipPath1);" y2="358"></line><text x="0" y="372" style="fill:white; clip-path:url(#clipPath1); stroke:none;" xml:space="preserve">-10.0</text><line x1="35" x2="35" y1="0" style="fill:none; clip-path:url(#clipPath1);" y2="358"></line><text x="35" y="372" style="fill:white; clip-path:url(#clipPath1); stroke:none;" xml:space="preserve">-8.0</text><line x1="71" x2="71" y1="0" style="fill:none; clip-path:url(#clipPath1);" y2="358"></line><text x="71" y="372" style="fill:white; clip-path:url(#clipPath1); stroke:none;" xml:space="preserve">-6.0</text><line x1="107" x2="107" y1="0" style="fill:none; clip-path:url(#clipPath1);" y2="358"></line><text x="107" y="372" style="fill:white; clip-path:url(#clipPath1); stroke:none;" xml:space="preserve">-4.0</text><line x1="143" x2="143" y1="0" style="fill:none; clip-path:url(#clipPath1);" y2="358"></line><text x="143" y="372" style="fill:white; clip-path:url(#clipPath1); stroke:none;" xml:space="preserve">-2.0</text><text x="179" y="372" style="fill:white; clip-path:url(#clipPath1); stroke:none;" xml:space="preserve">0.0</text><line x1="214" x2="214" y1="0" style="fill:none; clip-path:url(#clipPath1);" y2="358"></line><text x="214" y="372" style="fill:white; clip-path:url(#clipPath1); stroke:none;" xml:space="preserve">2.0</text><line x1="250" x2="250" y1="0" style="fill:none; clip-path:url(#clipPath1);" y2="358"></line><text x="250" y="372" style="fill:white; clip-path:url(#clipPath1); stroke:none;" xml:space="preserve">4.0</text><line x1="286" x2="286" y1="0" style="fill:none; clip-path:url(#clipPath1);" y2="358"></line><text x="286" y="372" style="fill:white; clip-path:url(#clipPath1); stroke:none;" xml:space="preserve">6.0</text><line x1="322" x2="322" y1="0" style="fill:none; clip-path:url(#clipPath1);" y2="358"></line><text x="322" y="372" style="fill:white; clip-path:url(#clipPath1); stroke:none;" xml:space="preserve">8.0</text><line x1="358" x2="358" y1="0" style="fill:none; clip-path:url(#clipPath1);" y2="358"></line><text x="358" y="372" style="fill:white; clip-path:url(#clipPath1); stroke:none;" xml:space="preserve">10.0</text><line x1="0" x2="358" y1="358" style="fill:none; clip-path:url(#clipPath1);" y2="358"></line><text x="358" y="355" style="fill:white; clip-path:url(#clipPath1); stroke:none;" xml:space="preserve">-10.0</text><line x1="0" x2="358" y1="322" style="fill:none; clip-path:url(#clipPath1);" y2="322"></line><text x="358" y="320" style="fill:white; clip-path:url(#clipPath1); stroke:none;" xml:space="preserve">-8.0</text><line x1="0" x2="358" y1="286" style="fill:none; clip-path:url(#clipPath1);" y2="286"></line><text x="358" y="286" style="fill:white; clip-path:url(#clipPath1); stroke:none;" xml:space="preserve">-6.0</text><line x1="0" x2="358" y1="250" style="fill:none; clip-path:url(#clipPath1);" y2="250"></line><text x="358" y="252" style="fill:white; clip-path:url(#clipPath1); stroke:none;" xml:space="preserve">-4.0</text><line x1="0" x2="358" y1="214" style="fill:none; clip-path:url(#clipPath1);" y2="214"></line><text x="358" y="217" style="fill:white; clip-path:url(#clipPath1); stroke:none;" xml:space="preserve">-2.0</text><text x="358" y="184" style="fill:white; clip-path:url(#clipPath1); stroke:none;" xml:space="preserve">0.0</text><line x1="0" x2="358" y1="143" style="fill:none; clip-path:url(#clipPath1);" y2="143"></line><text x="358" y="150" style="fill:white; clip-path:url(#clipPath1); stroke:none;" xml:space="preserve">2.0</text><line x1="0" x2="358" y1="107" style="fill:none; clip-path:url(#clipPath1);" y2="107"></line><text x="358" y="115" style="fill:white; clip-path:url(#clipPath1); stroke:none;" xml:space="preserve">4.0</text><line x1="0" x2="358" y1="71" style="fill:none; clip-path:url(#clipPath1);" y2="71"></line><text x="358" y="81" style="fill:white; clip-path:url(#clipPath1); stroke:none;" xml:space="preserve">6.0</text><line x1="0" x2="358" y1="35" style="fill:none; clip-path:url(#clipPath1);" y2="35"></line><text x="358" y="47" style="fill:white; clip-path:url(#clipPath1); stroke:none;" xml:space="preserve">8.0</text><line x1="0" x2="358" y1="0" style="fill:none; clip-path:url(#clipPath1);" y2="0"></line><text x="358" y="14" style="fill:white; clip-path:url(#clipPath1); stroke:none;" xml:space="preserve">10.0</text></g><g style="fill:yellow; text-rendering:optimizeLegibility; stroke-width:2; stroke:yellow;"><path d="M0 161 L0 161 L1 161 L2 161 L3 161 L4 161 L5 161 L6 161 L7 161 L8 161 L9 161 L10 161 L11 161 L12 161 L13 161 L14 161 L15 161 L16 161 L17 161 L18 161 L19 161 L20 161 L21 161 L22 161 L23 161 L24 161 L25 161 L26 161 L27 161 L28 161 L29 161 L30 161 L31 161 L32 161 L33 161 L34 161 L35 161 L36 161 L37 161 L38 161 L39 161 L40 161 L41 161 L42 161 L43 161 L44 161 L45 161 L46 161 L47 161 L48 161 L49 161 L50 161 L51 161 L52 161 L53 161 L54 161 L55 161 L56 161 L57 161 L58 161 L59 161 L60 161 L61 161 L62 161 L63 161 L64 161 L65 161 L66 161 L67 161 L68 161 L69 161 L70 161 L71 161 L72 161 L73 161 L74 161 L75 161 L76 161 L77 161 L78 161 L79 161 L80 161 L81 161 L82 161 L83 161 L84 161 L85 161 L86 161 L87 161 L88 161 L89 161 L90 161 L91 161 L92 161 L93 161 L94 161 L95 161 L96 161 L97 161 L98 161 L99 161 L100 161 L101 161 L102 161 L103 161 L104 161 L105 161 L106 161 L107 161 L108 161 L109 161 L110 161 L111 161 L112 161 L113 161 L114 161 L115 161 L116 161 L117 161 L118 161 L119 161 L120 161 L121 161 L122 161 L123 161 L124 161 L125 161 L126 161 L127 161 L128 161 L129 161 L130 161 L131 161 L132 161 L133 161 L134 161 L135 161 L136 161 L137 161 L138 161 L139 161 L140 161 L141 161 L142 161 L143 161 L144 161 L145 161 L146 161 L147 161 L148 161 L149 161 L150 161 L151 161 L152 161 L153 161 L154 161 L155 161 L156 161 L157 161 L158 161 L159 161 L160 161 L161 161 L162 161 L163 161 L164 161 L165 161 L166 161 L167 161 L168 161 L169 161 L170 161 L171 161 L172 161 L173 161 L174 161 L175 161 L176 161 L177 161 L178 161 L179 161 L180 161 L181 161 L182 161 L183 161 L184 161 L185 161 L186 161 L187 161 L188 161 L189 161 L190 161 L191 161 L192 161 L193 161 L194 161 L195 161 L196 161 L197 161 L198 161 L199 161 L200 161 L201 161 L202 161 L203 161 L204 161 L205 161 L206 161 L207 161 L208 161 L209 161 L210 161 L211 161 L212 161 L213 161 L214 161 L215 161 L216 161 L217 161 L218 161 L219 161 L220 161 L221 161 L222 161 L223 161 L224 161 L225 161 L226 161 L227 161 L228 161 L229 161 L230 161 L231 161 L232 161 L233 161 L234 161 L235 161 L236 161 L237 161 L238 161 L239 161 L240 161 L241 161 L242 161 L243 161 L244 161 L245 161 L246 161 L247 161 L248 161 L249 161 L250 161 L251 161 L252 161 L253 161 L254 161 L255 161 L256 161 L257 161 L258 161 L259 161 L260 161 L261 161 L262 161 L263 161 L264 161 L265 161 L266 161 L267 161 L268 161 L269 161 L270 161 L271 161 L272 161 L273 161 L274 161 L275 161 L276 161 L277 161 L278 161 L279 161 L280 161 L281 161 L282 161 L283 161 L284 161 L285 161 L286 161 L287 161 L288 161 L289 161 L290 161 L291 161 L292 161 L293 161 L294 161 L295 161 L296 161 L297 161 L298 161 L299 161 L300 161 L301 161 L302 161 L303 161 L304 161 L305 161 L306 161 L307 161 L308 161 L309 161 L310 161 L311 161 L312 161 L313 161 L314 161 L315 161 L316 161 L317 161 L318 161 L319 161 L320 161 L321 161 L322 161 L323 161 L324 161 L325 161 L326 161 L327 161 L328 161 L329 161 L330 161 L331 161 L332 161 L333 161 L334 161 L335 161 L336 161 L337 161 L338 161 L339 161 L340 161 L341 161 L342 161 L343 161 L344 161 L345 161 L346 161 L347 161 L348 161 L349 161 L350 161 L351 161 L352 161 L353 161 L354 161 L355 161 L356 161 L357 161 M357 161 Z" style="fill:none; fill-rule:evenodd; clip-path:url(#clipPath2);"></path></g></g></svg>