<svg xmlns:xlink="http://www.w3.org/1999/xlink" style="fill-opacity:1; color-rendering:auto; color-interpolation:auto; stroke:black; text-rendering:auto; stroke-linecap:square; stroke-miterlimit:10; stroke-opacity:1; shape-rendering:auto; fill:black; stroke-dasharray:none; font-weight:normal; stroke-width:1; font-family:'Dialog'; font-style:normal; stroke-linejoin:miter; font-size:12; stroke-dashoffset:0; image-rendering:auto;" xmlns="http://www.w3.org/2000/svg" id="generatedSVG"><!--Generated by the Batik Graphics2D SVG Generator--><defs id="genericDefs"></defs><g><defs id="defs1"><clipPath clipPathUnits="userSpaceOnUse" id="clipPath1"><path d="M0 0 L400 0 L400 400 L0 400 L0 0 Z"></path></clipPath><clipPath clipPathUnits="userSpaceOnUse" id="clipPath2"><path d="M0 0 L358 0 L358 358 L0 358 L0 0 Z"></path></clipPath></defs><g><rect x="0" y="0" width="400" style="clip-path:url(#clipPath1); stroke:none;" height="400"></rect><line x1="179" x2="179" y1="358" style="clip-path:url(#clipPath1); fill:none; stroke:white;" y2="0"></line><line x1="0" x2="358" y1="179" style="clip-path:url(#clipPath1); fill:none; stroke:white;" y2="179"></line></g><g style="fill:fuchsia; stroke-dasharray:1; stroke-miterlimit:1; stroke-linecap:butt; stroke:fuchsia;"><line x1="0" x2="0" y1="0" style="fill:none; clip-path:url(#clipPath1);" y2="358"></line><text x="0" y="372" style="fill:white; clip-path:url(#clipPath1); stroke:none;" xml:space="preserve">-10.0</text><line x1="35" x2="35" y1="0" style="fill:none; clip-path:url(#clipPath1);" y2="358"></line><text x="35" y="372" style="fill:white; clip-path:url(#clipPath1); stroke:none;" xml:space="preserve">-8.0</text><line x1="71" x2="71" y1="0" style="fill:none; clip-path:url(#clipPath1);" y2="358"></line><text x="71" y="372" style="fill:white; clip-path:url(#clipPath1); stroke:none;" xml:space="preserve">-6.0</text><line x1="107" x2="107" y1="0" style="fill:none; clip-path:url(#clipPath1);" y2="358"></line><text x="107" y="372" style="fill:white; clip-path:url(#clipPath1); stroke:none;" xml:space="preserve">-4.0</text><line x1="143" x2="143" y1="0" style="fill:none; clip-path:url(#clipPath1);" y2="358"></line><text x="143" y="372" style="fill:white; clip-path:url(#clipPath1); stroke:none;" xml:space="preserve">-2.0</text><text x="179" y="372" style="fill:white; clip-path:url(#clipPath1); stroke:none;" xml:space="preserve">0.0</text><line x1="214" x2="214" y1="0" style="fill:none; clip-path:url(#clipPath1);" y2="358"></line><text x="214" y="372" style="fill:white; clip-path:url(#clipPath1); stroke:none;" xml:space="preserve">2.0</text><line x1="250" x2="250" y1="0" style="fill:none; clip-path:url(#clipPath1);" y2="358"></line><text x="250" y="372" style="fill:white; clip-path:url(#clipPath1); stroke:none;" xml:space="preserve">4.0</text><line x1="286" x2="286" y1="0" style="fill:none; clip-path:url(#clipPath1);" y2="358"></line><text x="286" y="372" style="fill:white; clip-path:url(#clipPath1); stroke:none;" xml:space="preserve">6.0</text><line x1="322" x2="322" y1="0" style="fill:none; clip-path:url(#clipPath1);" y2="358"></line><text x="322" y="372" style="fill:white; clip-path:url(#clipPath1); stroke:none;" xml:space="preserve">8.0</text><line x1="358" x2="358" y1="0" style="fill:none; clip-path:url(#clipPath1);" y2="358"></line><text x="358" y="372" style="fill:white; clip-path:url(#clipPath1); stroke:none;" xml:space="preserve">10.0</text><line x1="0" x2="358" y1="358" style="fill:none; clip-path:url(#clipPath1);" y2="358"></line><text x="358" y="355" style="fill:white; clip-path:url(#clipPath1); stroke:none;" xml:space="preserve">-10.0</text><line x1="0" x2="358" y1="322" style="fill:none; clip-path:url(#clipPath1);" y2="322"></line><text x="358" y="320" style="fill:white; clip-path:url(#clipPath1); stroke:none;" xml:space="preserve">-8.0</text><line x1="0" x2="358" y1="286" style="fill:none; clip-path:url(#clipPath1);" y2="286"></line><text x="358" y="286" style="fill:white; clip-path:url(#clipPath1); stroke:none;" xml:space="preserve">-6.0</text><line x1="0" x2="358" y1="250" style="fill:none; clip-path:url(#clipPath1);" y2="250"></line><text x="358" y="252" style="fill:white; clip-path:url(#clipPath1); stroke:none;" xml:space="preserve">-4.0</text><line x1="0" x2="358" y1="214" style="fill:none; clip-path:url(#clipPath1);" y2="214"></line><text x="358" y="217" style="fill:white; clip-path:url(#clipPath1); stroke:none;" xml:space="preserve">-2.0</text><text x="358" y="184" style="fill:white; clip-path:url(#clipPath1); stroke:none;" xml:space="preserve">0.0</text><line x1="0" x2="358" y1="143" style="fill:none; clip-path:url(#clipPath1);" y2="143"></line><text x="358" y="150" style="fill:white; clip-path:url(#clipPath1); stroke:none;" xml:space="preserve">2.0</text><line x1="0" x2="358" y1="107" style="fill:none; clip-path:url(#clipPath1);" y2="107"></line><text x="358" y="115" style="fill:white; clip-path:url(#clipPath1); stroke:none;" xml:space="preserve">4.0</text><line x1="0" x2="358" y1="71" style="fill:none; clip-path:url(#clipPath1);" y2="71"></line><text x="358" y="81" style="fill:white; clip-path:url(#clipPath1); stroke:none;" xml:space="preserve">6.0</text><line x1="0" x2="358" y1="35" style="fill:none; clip-path:url(#clipPath1);" y2="35"></line><text x="358" y="47" style="fill:white; clip-path:url(#clipPath1); stroke:none;" xml:space="preserve">8.0</text><line x1="0" x2="358" y1="0" style="fill:none; clip-path:url(#clipPath1);" y2="0"></line><text x="358" y="14" style="fill:white; clip-path:url(#clipPath1); stroke:none;" xml:space="preserve">10.0</text></g><g style="fill:yellow; text-rendering:optimizeLegibility; stroke-width:2; stroke:yellow;"><path d="M0 358 L0 357 L1 356 L2 355 L3 354 L4 353 L5 352 L6 351 L7 350 L8 349 L9 348 L10 347 L11 346 L12 345 L13 344 L14 343 L15 342 L16 341 L17 340 L18 339 L19 338 L20 337 L21 336 L22 335 L23 334 L24 333 L25 332 L26 331 L27 330 L28 329 L29 328 L30 327 L31 326 L32 325 L33 324 L34 323 L35 322 L36 321 L37 320 L38 319 L39 318 L40 317 L41 316 L42 315 L43 314 L44 313 L45 312 L46 311 L47 310 L48 309 L49 308 L50 307 L51 306 L52 305 L53 304 L54 303 L55 302 L56 301 L57 300 L58 299 L59 298 L60 297 L61 296 L62 295 L63 294 L64 293 L65 292 L66 291 L67 290 L68 289 L69 288 L70 287 L71 286 L72 285 L73 284 L74 283 L75 282 L76 281 L77 280 L78 279 L79 278 L80 277 L81 276 L82 275 L83 274 L84 273 L85 272 L86 271 L87 270 L88 269 L89 268 L90 267 L91 266 L92 265 L93 264 L94 263 L95 262 L96 261 L97 260 L98 259 L99 258 L100 257 L101 256 L102 255 L103 254 L104 253 L105 252 L106 251 L107 250 L108 249 L109 248 L110 247 L111 246 L112 245 L113 244 L114 243 L115 242 L116 241 L117 240 L118 239 L119 238 L120 237 L121 236 L122 235 L123 234 L124 233 L125 232 L126 231 L127 230 L128 229 L129 228 L130 227 L131 226 L132 225 L133 224 L134 223 L135 222 L136 221 L137 220 L138 219 L139 218 L140 217 L141 216 L142 215 L143 214 L144 213 L145 212 L146 211 L147 210 L148 209 L149 208 L150 207 L151 206 L152 205 L153 204 L154 203 L155 202 L156 201 L157 200 L158 199 L159 198 L160 197 L161 196 L162 195 L163 194 L164 193 L165 192 L166 191 L167 190 L168 189 L169 188 L170 187 L171 186 L172 185 L173 184 L174 183 L175 182 L176 181 L177 180 L178 179 L179 178 L180 177 L181 176 L182 175 L183 174 L184 173 L185 172 L186 171 L187 170 L188 169 L189 168 L190 167 L191 166 L192 165 L193 164 L194 163 L195 162 L196 161 L197 160 L198 159 L199 158 L200 157 L201 156 L202 155 L203 154 L204 153 L205 152 L206 151 L207 150 L208 149 L209 148 L210 147 L211 146 L212 145 L213 144 L214 143 L215 142 L216 141 L217 140 L218 139 L219 138 L220 137 L221 136 L222 135 L223 134 L224 133 L225 132 L226 131 L227 130 L228 129 L229 128 L230 127 L231 126 L232 125 L233 124 L234 123 L235 122 L236 121 L237 120 L238 119 L239 118 L240 117 L241 116 L242 115 L243 114 L244 113 L245 112 L246 111 L247 110 L248 109 L249 108 L250 107 L251 106 L252 105 L253 104 L254 103 L255 102 L256 101 L257 100 L258 99 L259 98 L260 97 L261 96 L262 95 L263 94 L264 93 L265 92 L266 91 L267 90 L268 89 L269 88 L270 87 L271 86 L272 85 L273 84 L274 83 L275 82 L276 81 L277 80 L278 79 L279 78 L280 77 L281 76 L282 75 L283 74 L284 73 L285 72 L286 71 L287 70 L288 69 L289 68 L290 67 L291 66 L292 65 L293 64 L294 63 L295 62 L296 61 L297 60 L298 59 L299 58 L300 57 L301 56 L302 55 L303 54 L304 53 L305 52 L306 51 L307 50 L308 49 L309 48 L310 47 L311 46 L312 45 L313 44 L314 43 L315 42 L316 41 L317 40 L318 39 L319 38 L320 37 L321 36 L322 35 L323 34 L324 33 L325 32 L326 31 L327 30 L328 29 L329 28 L330 27 L331 26 L332 25 L333 24 L334 23 L335 22 L336 21 L337 20 L338 19 L339 18 L340 17 L341 16 L342 15 L343 14 L344 13 L345 12 L346 11 L347 10 L348 9 L349 8 L350 7 L351 6 L352 5 L353 4 L354 3 L355 2 L356 1 L357 0 M357 0 Z" style="fill:none; fill-rule:evenodd; clip-path:url(#clipPath2);"></path></g></g></svg>