<svg xmlns:xlink="http://www.w3.org/1999/xlink" style="fill-opacity:1; color-rendering:auto; color-interpolation:auto; stroke:black; text-rendering:auto; stroke-linecap:square; stroke-miterlimit:10; stroke-opacity:1; shape-rendering:auto; fill:black; stroke-dasharray:none; font-weight:normal; stroke-width:1; font-family:'Dialog'; font-style:normal; stroke-linejoin:miter; font-size:12; stroke-dashoffset:0; image-rendering:auto;" xmlns="http://www.w3.org/2000/svg" id="generatedSVG"><!--Generated by the Batik Graphics2D SVG Generator--><defs id="genericDefs"></defs><g><defs id="defs1"><clipPath clipPathUnits="userSpaceOnUse" id="clipPath1"><path d="M0 0 L400 0 L400 400 L0 400 L0 0 Z"></path></clipPath><clipPath clipPathUnits="userSpaceOnUse" id="clipPath2"><path d="M0 0 L358 0 L358 358 L0 358 L0 0 Z"></path></clipPath></defs><g><rect x="0" y="0" width="400" style="clip-path:url(#clipPath1); stroke:none;" height="400"></rect><line x1="179" x2="179" y1="358" style="clip-path:url(#clipPath1); fill:none; stroke:white;" y2="0"></line><line x1="0" x2="358" y1="179" style="clip-path:url(#clipPath1); fill:none; stroke:white;" y2="179"></line></g><g style="fill:fuchsia; stroke-dasharray:1; stroke-miterlimit:1; stroke-linecap:butt; stroke:fuchsia;"><line x1="0" x2="0" y1="0" style="fill:none; clip-path:url(#clipPath1);" y2="358"></line><text x="0" y="372" style="fill:white; clip-path:url(#clipPath1); stroke:none;" xml:space="preserve">-10.0</text><line x1="35" x2="35" y1="0" style="fill:none; clip-path:url(#clipPath1);" y2="358"></line><text x="35" y="372" style="fill:white; clip-path:url(#clipPath1); stroke:none;" xml:space="preserve">-8.0</text><line x1="71" x2="71" y1="0" style="fill:none; clip-path:url(#clipPath1);" y2="358"></line><text x="71" y="372" style="fill:white; clip-path:url(#clipPath1); stroke:none;" xml:space="preserve">-6.0</text><line x1="107" x2="107" y1="0" style="fill:none; clip-path:url(#clipPath1);" y2="358"></line><text x="107" y="372" style="fill:white; clip-path:url(#clipPath1); stroke:none;" xml:space="preserve">-4.0</text><line x1="143" x2="143" y1="0" style="fill:none; clip-path:url(#clipPath1);" y2="358"></line><text x="143" y="372" style="fill:white; clip-path:url(#clipPath1); stroke:none;" xml:space="preserve">-2.0</text><text x="179" y="372" style="fill:white; clip-path:url(#clipPath1); stroke:none;" xml:space="preserve">0.0</text><line x1="214" x2="214" y1="0" style="fill:none; clip-path:url(#clipPath1);" y2="358"></line><text x="214" y="372" style="fill:white; clip-path:url(#clipPath1); stroke:none;" xml:space="preserve">2.0</text><line x1="250" x2="250" y1="0" style="fill:none; clip-path:url(#clipPath1);" y2="358"></line><text x="250" y="372" style="fill:white; clip-path:url(#clipPath1); stroke:none;" xml:space="preserve">4.0</text><line x1="286" x2="286" y1="0" style="fill:none; clip-path:url(#clipPath1);" y2="358"></line><text x="286" y="372" style="fill:white; clip-path:url(#clipPath1); stroke:none;" xml:space="preserve">6.0</text><line x1="322" x2="322" y1="0" style="fill:none; clip-path:url(#clipPath1);" y2="358"></line><text x="322" y="372" style="fill:white; clip-path:url(#clipPath1); stroke:none;" xml:space="preserve">8.0</text><line x1="358" x2="358" y1="0" style="fill:none; clip-path:url(#clipPath1);" y2="358"></line><text x="358" y="372" style="fill:white; clip-path:url(#clipPath1); stroke:none;" xml:space="preserve">10.0</text><line x1="0" x2="358" y1="358" style="fill:none; clip-path:url(#clipPath1);" y2="358"></line><text x="358" y="355" style="fill:white; clip-path:url(#clipPath1); stroke:none;" xml:space="preserve">-10.0</text><line x1="0" x2="358" y1="322" style="fill:none; clip-path:url(#clipPath1);" y2="322"></line><text x="358" y="320" style="fill:white; clip-path:url(#clipPath1); stroke:none;" xml:space="preserve">-8.0</text><line x1="0" x2="358" y1="286" style="fill:none; clip-path:url(#clipPath1);" y2="286"></line><text x="358" y="286" style="fill:white; clip-path:url(#clipPath1); stroke:none;" xml:space="preserve">-6.0</text><line x1="0" x2="358" y1="250" style="fill:none; clip-path:url(#clipPath1);" y2="250"></line><text x="358" y="252" style="fill:white; clip-path:url(#clipPath1); stroke:none;" xml:space="preserve">-4.0</text><line x1="0" x2="358" y1="214" style="fill:none; clip-path:url(#clipPath1);" y2="214"></line><text x="358" y="217" style="fill:white; clip-path:url(#clipPath1); stroke:none;" xml:space="preserve">-2.0</text><text x="358" y="184" style="fill:white; clip-path:url(#clipPath1); stroke:none;" xml:space="preserve">0.0</text><line x1="0" x2="358" y1="143" style="fill:none; clip-path:url(#clipPath1);" y2="143"></line><text x="358" y="150" style="fill:white; clip-path:url(#clipPath1); stroke:none;" xml:space="preserve">2.0</text><line x1="0" x2="358" y1="107" style="fill:none; clip-path:url(#clipPath1);" y2="107"></line><text x="358" y="115" style="fill:white; clip-path:url(#clipPath1); stroke:none;" xml:space="preserve">4.0</text><line x1="0" x2="358" y1="71" style="fill:none; clip-path:url(#clipPath1);" y2="71"></line><text x="358" y="81" style="fill:white; clip-path:url(#clipPath1); stroke:none;" xml:space="preserve">6.0</text><line x1="0" x2="358" y1="35" style="fill:none; clip-path:url(#clipPath1);" y2="35"></line><text x="358" y="47" style="fill:white; clip-path:url(#clipPath1); stroke:none;" xml:space="preserve">8.0</text><line x1="0" x2="358" y1="0" style="fill:none; clip-path:url(#clipPath1);" y2="0"></line><text x="358" y="14" style="fill:white; clip-path:url(#clipPath1); stroke:none;" xml:space="preserve">10.0</text></g><g style="fill:yellow; text-rendering:optimizeLegibility; stroke-width:2; stroke:yellow;"><path d="M0 401 L0 401 L1 401 L2 401 L3 401 L4 401 L5 401 L6 401 L7 401 L8 401 L9 401 L10 401 L11 401 L12 401 L13 401 L14 401 L15 401 L16 401 L17 401 L17 357 L18 357 L19 356 L20 355 L20 354 L21 354 L22 353 L23 352 L23 351 L24 351 L25 350 L26 349 L27 348 L28 347 L29 346 L30 345 L31 344 L32 343 L33 342 L34 341 L35 340 L36 339 L37 338 L38 337 L39 336 L40 335 L41 334 L42 333 L43 332 L44 331 L45 330 L46 329 L47 328 L48 327 L49 326 L50 325 L51 324 L51 323 L52 323 L53 322 L54 321 L54 320 L55 320 L56 319 L57 318 L57 317 L58 317 L59 316 L60 315 L60 314 L61 314 L62 313 L63 312 L63 311 L64 311 L65 310 L66 309 L66 308 L67 308 L68 307 L69 306 L69 305 L70 305 L71 304 L72 303 L72 302 L73 302 L74 301 L75 300 L75 299 L76 299 L77 298 L78 297 L79 296 L80 295 L81 294 L82 293 L83 292 L84 291 L85 290 L86 289 L87 288 L88 287 L89 286 L90 285 L91 284 L92 283 L93 282 L94 281 L95 280 L96 279 L97 278 L98 277 L99 276 L100 275 L101 274 L102 273 L103 272 L103 271 L104 271 L105 270 L106 269 L106 268 L107 268 L108 267 L109 266 L109 265 L110 265 L111 264 L112 263 L112 262 L113 262 L114 261 L115 260 L115 259 L116 259 L117 258 L118 257 L118 256 L119 256 L120 255 L121 254 L121 253 L122 253 L123 252 L124 251 L124 250 L125 250 L126 249 L127 248 L128 247 L129 246 L130 245 L131 244 L132 243 L133 242 L134 241 L135 240 L136 239 L137 238 L138 237 L139 236 L140 235 L141 234 L142 233 L143 232 L144 231 L145 230 L146 229 L147 228 L148 227 L149 226 L150 225 L151 224 L152 223 L153 222 L154 221 L155 220 L155 219 L156 219 L157 218 L158 217 L158 216 L159 216 L160 215 L161 214 L161 213 L162 213 L163 212 L164 211 L164 210 L165 210 L166 209 L167 208 L167 207 L168 207 L169 206 L170 205 L170 204 L171 204 L172 203 L173 202 L173 201 L174 201 L175 200 L176 199 L176 198 L177 198 L178 197 L179 196 L180 195 L181 194 L182 193 L183 192 L184 191 L185 190 L186 189 L187 188 L188 187 L189 186 L190 185 L191 184 L192 183 L193 182 L194 181 L195 180 L196 179 L197 178 L198 177 L199 176 L200 175 L201 174 L202 173 L203 172 L204 171 L204 170 L205 170 L206 169 L207 168 L207 167 L208 167 L209 166 L210 165 L210 164 L211 164 L212 163 L213 162 L213 161 L214 161 L215 160 L216 159 L216 158 L217 158 L218 157 L219 156 L219 155 L220 155 L221 154 L222 153 L222 152 L223 152 L224 151 L225 150 L225 149 L226 149 L227 148 L228 147 L228 146 L229 146 L230 145 L231 144 L232 143 L233 142 L234 141 L235 140 L236 139 L237 138 L238 137 L239 136 L240 135 L241 134 L242 133 L243 132 L244 131 L245 130 L246 129 L247 128 L248 127 L249 126 L250 125 L251 124 L252 123 L253 122 L254 121 L255 120 L256 119 L256 118 L257 118 L258 117 L259 116 L259 115 L260 115 L261 114 L262 113 L262 112 L263 112 L264 111 L265 110 L265 109 L266 109 L267 108 L268 107 L268 106 L269 106 L270 105 L271 104 L271 103 L272 103 L273 102 L274 101 L274 100 L275 100 L276 99 L277 98 L277 97 L278 97 L279 96 L280 95 L280 94 L281 94 L282 93 L283 92 L284 91 L285 90 L286 89 L287 88 L288 87 L289 86 L290 85 L291 84 L292 83 L293 82 L294 81 L295 80 L296 79 L297 78 L298 77 L299 76 L300 75 L301 74 L302 73 L303 72 L304 71 L305 70 L306 69 L307 68 L308 67 L308 66 L309 66 L310 65 L311 64 L311 63 L312 63 L313 62 L314 61 L314 60 L315 60 L316 59 L317 58 L317 57 L318 57 L319 56 L320 55 L320 54 L321 54 L322 53 L323 52 L323 51 L324 51 L325 50 L326 49 L326 48 L327 48 L328 47 L329 46 L329 45 L330 45 L331 44 L332 43 L333 42 L334 41 L335 40 L336 39 L337 38 L338 37 L339 36 L340 35 L341 34 L342 33 L343 32 L344 31 L345 30 L346 29 L347 28 L348 27 L349 26 L350 25 L351 24 L352 23 L353 22 L354 21 L355 20 L356 19 L357 18 L357 17 M357 17 ZM0 340 L0 339 L1 338 L2 337 L3 336 L4 335 L5 334 L6 333 L7 332 L8 331 L9 330 L10 329 L11 328 L12 327 L13 326 L14 325 L15 324 L16 323 L17 322 L18 321 L19 320 L20 319 L21 318 L22 317 L23 316 L24 315 L25 314 L26 313 L27 312 L28 312 L28 311 L29 310 L30 309 L31 309 L31 308 L32 307 L33 306 L34 306 L34 305 L35 304 L36 303 L37 303 L37 302 L38 301 L39 300 L40 300 L40 299 L41 298 L42 297 L43 297 L43 296 L44 295 L45 294 L46 294 L46 293 L47 292 L48 291 L49 291 L49 290 L50 289 L51 288 L52 287 L53 286 L54 285 L55 284 L56 283 L57 282 L58 281 L59 280 L60 279 L61 278 L62 277 L63 276 L64 275 L65 274 L66 273 L67 272 L68 271 L69 270 L70 269 L71 268 L72 267 L73 266 L74 265 L75 264 L76 263 L77 263 L77 262 L78 261 L79 260 L80 260 L80 259 L81 258 L82 257 L83 257 L83 256 L84 255 L85 254 L86 254 L86 253 L87 252 L88 251 L89 251 L89 250 L90 249 L91 248 L92 248 L92 247 L93 246 L94 245 L95 245 L95 244 L96 243 L97 242 L98 242 L98 241 L99 240 L100 239 L101 239 L101 238 L102 237 L103 236 L104 235 L105 234 L106 233 L107 232 L108 231 L109 230 L110 229 L111 228 L112 227 L113 226 L114 225 L115 224 L116 223 L117 222 L118 221 L119 220 L120 219 L121 218 L122 217 L123 216 L124 215 L125 214 L126 213 L127 212 L128 211 L129 211 L129 210 L130 209 L131 208 L132 208 L132 207 L133 206 L134 205 L135 205 L135 204 L136 203 L137 202 L138 202 L138 201 L139 200 L140 199 L141 199 L141 198 L142 197 L143 196 L144 196 L144 195 L145 194 L146 193 L147 193 L147 192 L148 191 L149 190 L150 190 L150 189 L151 188 L152 187 L153 187 L153 186 L154 185 L155 184 L156 183 L157 182 L158 181 L159 180 L160 179 L161 178 L162 177 L163 176 L164 175 L165 174 L166 173 L167 172 L168 171 L169 170 L170 169 L171 168 L172 167 L173 166 L174 165 L175 164 L176 163 L177 162 L178 161 L179 160 L180 159 L181 159 L181 158 L182 157 L183 156 L184 156 L184 155 L185 154 L186 153 L187 153 L187 152 L188 151 L189 150 L190 150 L190 149 L191 148 L192 147 L193 147 L193 146 L194 145 L195 144 L196 144 L196 143 L197 142 L198 141 L199 141 L199 140 L200 139 L201 138 L202 138 L202 137 L203 136 L204 135 L205 134 L206 133 L207 132 L208 131 L209 130 L210 129 L211 128 L212 127 L213 126 L214 125 L215 124 L216 123 L217 122 L218 121 L219 120 L220 119 L221 118 L222 117 L223 116 L224 115 L225 114 L226 113 L227 112 L228 111 L229 110 L230 109 L231 108 L232 107 L233 107 L233 106 L234 105 L235 104 L236 104 L236 103 L237 102 L238 101 L239 101 L239 100 L240 99 L241 98 L242 98 L242 97 L243 96 L244 95 L245 95 L245 94 L246 93 L247 92 L248 92 L248 91 L249 90 L250 89 L251 89 L251 88 L252 87 L253 86 L254 86 L254 85 L255 84 L256 83 L257 82 L258 81 L259 80 L260 79 L261 78 L262 77 L263 76 L264 75 L265 74 L266 73 L267 72 L268 71 L269 70 L270 69 L271 68 L272 67 L273 66 L274 65 L275 64 L276 63 L277 62 L278 61 L279 60 L280 59 L281 58 L282 58 L282 57 L283 56 L284 55 L285 55 L285 54 L286 53 L287 52 L288 52 L288 51 L289 50 L290 49 L291 49 L291 48 L292 47 L293 46 L294 46 L294 45 L295 44 L296 43 L297 43 L297 42 L298 41 L299 40 L300 40 L300 39 L301 38 L302 37 L303 37 L303 36 L304 35 L305 34 L306 34 L306 33 L307 32 L308 31 L309 30 L310 29 L311 28 L312 27 L313 26 L314 25 L315 24 L316 23 L317 22 L318 21 L319 20 L320 19 L321 18 L322 17 L323 16 L324 15 L325 14 L326 13 L327 12 L328 11 L329 10 L330 9 L331 8 L332 7 L333 6 L334 6 L334 5 L335 4 L336 3 L337 3 L337 2 L338 1 L339 0 L340 0 L340 -1 L341 -1 L342 -1 L343 -1 L344 -1 L345 -1 L346 -1 L347 -1 L348 -1 L349 -1 L350 -1 L351 -1 L352 -1 L353 -1 L354 -1 L355 -1 L356 -1 L357 -1 M357 -1 Z" style="fill:none; fill-rule:evenodd; clip-path:url(#clipPath2);"></path></g></g></svg>