<svg xmlns:xlink="http://www.w3.org/1999/xlink" style="fill-opacity:1; color-rendering:auto; color-interpolation:auto; stroke:black; text-rendering:auto; stroke-linecap:square; stroke-miterlimit:10; stroke-opacity:1; shape-rendering:auto; fill:black; stroke-dasharray:none; font-weight:normal; stroke-width:1; font-family:'Dialog'; font-style:normal; stroke-linejoin:miter; font-size:12; stroke-dashoffset:0; image-rendering:auto;" xmlns="http://www.w3.org/2000/svg" id="generatedSVG"><!--Generated by the Batik Graphics2D SVG Generator--><defs id="genericDefs"></defs><g><defs id="defs1"><clipPath clipPathUnits="userSpaceOnUse" id="clipPath1"><path d="M0 0 L400 0 L400 400 L0 400 L0 0 Z"></path></clipPath><clipPath clipPathUnits="userSpaceOnUse" id="clipPath2"><path d="M0 0 L358 0 L358 358 L0 358 L0 0 Z"></path></clipPath></defs><g><rect x="0" y="0" width="400" style="clip-path:url(#clipPath1); stroke:none;" height="400"></rect><line x1="179" x2="179" y1="358" style="clip-path:url(#clipPath1); fill:none; stroke:white;" y2="0"></line><line x1="0" x2="358" y1="179" style="clip-path:url(#clipPath1); fill:none; stroke:white;" y2="179"></line></g><g style="fill:fuchsia; stroke-dasharray:1; stroke-miterlimit:1; stroke-linecap:butt; stroke:fuchsia;"><line x1="0" x2="0" y1="0" style="fill:none; clip-path:url(#clipPath1);" y2="358"></line><text x="0" y="372" style="fill:white; clip-path:url(#clipPath1); stroke:none;" xml:space="preserve">-10.0</text><line x1="35" x2="35" y1="0" style="fill:none; clip-path:url(#clipPath1);" y2="358"></line><text x="35" y="372" style="fill:white; clip-path:url(#clipPath1); stroke:none;" xml:space="preserve">-8.0</text><line x1="71" x2="71" y1="0" style="fill:none; clip-path:url(#clipPath1);" y2="358"></line><text x="71" y="372" style="fill:white; clip-path:url(#clipPath1); stroke:none;" xml:space="preserve">-6.0</text><line x1="107" x2="107" y1="0" style="fill:none; clip-path:url(#clipPath1);" y2="358"></line><text x="107" y="372" style="fill:white; clip-path:url(#clipPath1); stroke:none;" xml:space="preserve">-4.0</text><line x1="143" x2="143" y1="0" style="fill:none; clip-path:url(#clipPath1);" y2="358"></line><text x="143" y="372" style="fill:white; clip-path:url(#clipPath1); stroke:none;" xml:space="preserve">-2.0</text><text x="179" y="372" style="fill:white; clip-path:url(#clipPath1); stroke:none;" xml:space="preserve">0.0</text><line x1="214" x2="214" y1="0" style="fill:none; clip-path:url(#clipPath1);" y2="358"></line><text x="214" y="372" style="fill:white; clip-path:url(#clipPath1); stroke:none;" xml:space="preserve">2.0</text><line x1="250" x2="250" y1="0" style="fill:none; clip-path:url(#clipPath1);" y2="358"></line><text x="250" y="372" style="fill:white; clip-path:url(#clipPath1); stroke:none;" xml:space="preserve">4.0</text><line x1="286" x2="286" y1="0" style="fill:none; clip-path:url(#clipPath1);" y2="358"></line><text x="286" y="372" style="fill:white; clip-path:url(#clipPath1); stroke:none;" xml:space="preserve">6.0</text><line x1="322" x2="322" y1="0" style="fill:none; clip-path:url(#clipPath1);" y2="358"></line><text x="322" y="372" style="fill:white; clip-path:url(#clipPath1); stroke:none;" xml:space="preserve">8.0</text><line x1="358" x2="358" y1="0" style="fill:none; clip-path:url(#clipPath1);" y2="358"></line><text x="358" y="372" style="fill:white; clip-path:url(#clipPath1); stroke:none;" xml:space="preserve">10.0</text><line x1="0" x2="358" y1="358" style="fill:none; clip-path:url(#clipPath1);" y2="358"></line><text x="358" y="355" style="fill:white; clip-path:url(#clipPath1); stroke:none;" xml:space="preserve">-10.0</text><line x1="0" x2="358" y1="322" style="fill:none; clip-path:url(#clipPath1);" y2="322"></line><text x="358" y="320" style="fill:white; clip-path:url(#clipPath1); stroke:none;" xml:space="preserve">-8.0</text><line x1="0" x2="358" y1="286" style="fill:none; clip-path:url(#clipPath1);" y2="286"></line><text x="358" y="286" style="fill:white; clip-path:url(#clipPath1); stroke:none;" xml:space="preserve">-6.0</text><line x1="0" x2="358" y1="250" style="fill:none; clip-path:url(#clipPath1);" y2="250"></line><text x="358" y="252" style="fill:white; clip-path:url(#clipPath1); stroke:none;" xml:space="preserve">-4.0</text><line x1="0" x2="358" y1="214" style="fill:none; clip-path:url(#clipPath1);" y2="214"></line><text x="358" y="217" style="fill:white; clip-path:url(#clipPath1); stroke:none;" xml:space="preserve">-2.0</text><text x="358" y="184" style="fill:white; clip-path:url(#clipPath1); stroke:none;" xml:space="preserve">0.0</text><line x1="0" x2="358" y1="143" style="fill:none; clip-path:url(#clipPath1);" y2="143"></line><text x="358" y="150" style="fill:white; clip-path:url(#clipPath1); stroke:none;" xml:space="preserve">2.0</text><line x1="0" x2="358" y1="107" style="fill:none; clip-path:url(#clipPath1);" y2="107"></line><text x="358" y="115" style="fill:white; clip-path:url(#clipPath1); stroke:none;" xml:space="preserve">4.0</text><line x1="0" x2="358" y1="71" style="fill:none; clip-path:url(#clipPath1);" y2="71"></line><text x="358" y="81" style="fill:white; clip-path:url(#clipPath1); stroke:none;" xml:space="preserve">6.0</text><line x1="0" x2="358" y1="35" style="fill:none; clip-path:url(#clipPath1);" y2="35"></line><text x="358" y="47" style="fill:white; clip-path:url(#clipPath1); stroke:none;" xml:space="preserve">8.0</text><line x1="0" x2="358" y1="0" style="fill:none; clip-path:url(#clipPath1);" y2="0"></line><text x="358" y="14" style="fill:white; clip-path:url(#clipPath1); stroke:none;" xml:space="preserve">10.0</text></g><g style="fill:yellow; text-rendering:optimizeLegibility; stroke-width:2; stroke:yellow;"><path d="M161 358 L161 356 L161 354 L161 352 L161 350 L161 349 L161 347 L161 345 L161 343 L161 341 L161 340 L161 338 L161 336 L161 334 L161 332 L161 331 L161 329 L161 327 L161 325 L161 323 L161 322 L161 320 L161 318 L161 316 L161 314 L161 313 L161 311 L161 309 L161 307 L161 306 L161 304 L161 302 L161 300 L161 298 L161 297 L161 295 L161 293 L161 291 L161 289 L161 288 L161 286 L161 284 L161 282 L161 280 L161 279 L161 277 L161 275 L161 273 L161 271 L161 270 L161 268 L161 266 L161 264 L161 262 L161 261 L161 259 L161 257 L161 255 L161 254 L161 252 L161 250 L161 248 L161 246 L161 245 L161 243 L161 241 L161 239 L161 237 L161 236 L161 234 L161 232 L161 230 L161 228 L161 227 L161 225 L161 223 L161 221 L161 219 L161 218 L161 216 L161 214 L161 212 L161 210 L161 209 L161 207 L161 205 L161 203 L161 202 L161 200 L161 198 L161 196 L161 194 L161 193 L161 191 L161 189 L161 187 L161 185 L161 184 L161 182 L161 180 L161 178 L161 176 L161 175 L161 173 L161 171 L161 169 L161 167 L161 166 L161 164 L161 162 L161 160 L161 158 L161 157 L161 155 L161 153 L161 151 L161 150 L161 148 L161 146 L161 144 L161 142 L161 141 L161 139 L161 137 L161 135 L161 133 L161 132 L161 130 L161 128 L161 126 L161 124 L161 123 L161 121 L161 119 L161 117 L161 115 L161 114 L161 112 L161 110 L161 108 L161 106 L161 105 L161 103 L161 101 L161 99 L161 98 L161 96 L161 94 L161 92 L161 90 L161 89 L161 87 L161 85 L161 83 L161 81 L161 80 L161 78 L161 76 L161 74 L161 72 L161 71 L161 69 L161 67 L161 65 L161 63 L161 62 L161 60 L161 58 L161 56 L161 54 L161 53 L161 51 L161 49 L161 47 L161 46 L161 44 L161 42 L161 40 L161 38 L161 37 L161 35 L161 33 L161 31 L161 29 L161 28 L161 26 L161 24 L161 22 L161 20 L161 19 L161 17 L161 15 L161 13 L161 11 L161 10 L161 8 L161 6 L161 4 L161 2 L161 1 L161 -1 M161 -1 ZM196 358 L196 356 L196 354 L196 352 L196 350 L196 349 L196 347 L196 345 L196 343 L196 341 L196 340 L196 338 L196 336 L196 334 L196 332 L196 331 L196 329 L196 327 L196 325 L196 323 L196 322 L196 320 L196 318 L196 316 L196 314 L196 313 L196 311 L196 309 L196 307 L196 306 L196 304 L196 302 L196 300 L196 298 L196 297 L196 295 L196 293 L196 291 L196 289 L196 288 L196 286 L196 284 L196 282 L196 280 L196 279 L196 277 L196 275 L196 273 L196 271 L196 270 L196 268 L196 266 L196 264 L196 262 L196 261 L196 259 L196 257 L196 255 L196 254 L196 252 L196 250 L196 248 L196 246 L196 245 L196 243 L196 241 L196 239 L196 237 L196 236 L196 234 L196 232 L196 230 L196 228 L196 227 L196 225 L196 223 L196 221 L196 219 L196 218 L196 216 L196 214 L196 212 L196 210 L196 209 L196 207 L196 205 L196 203 L196 202 L196 200 L196 198 L196 196 L196 194 L196 193 L196 191 L196 189 L196 187 L196 185 L196 184 L196 182 L196 180 L196 178 L196 176 L196 175 L196 173 L196 171 L196 169 L196 167 L196 166 L196 164 L196 162 L196 160 L196 158 L196 157 L196 155 L196 153 L196 151 L196 150 L196 148 L196 146 L196 144 L196 142 L196 141 L196 139 L196 137 L196 135 L196 133 L196 132 L196 130 L196 128 L196 126 L196 124 L196 123 L196 121 L196 119 L196 117 L196 115 L196 114 L196 112 L196 110 L196 108 L196 106 L196 105 L196 103 L196 101 L196 99 L196 98 L196 96 L196 94 L196 92 L196 90 L196 89 L196 87 L196 85 L196 83 L196 81 L196 80 L196 78 L196 76 L196 74 L196 72 L196 71 L196 69 L196 67 L196 65 L196 63 L196 62 L196 60 L196 58 L196 56 L196 54 L196 53 L196 51 L196 49 L196 47 L196 46 L196 44 L196 42 L196 40 L196 38 L196 37 L196 35 L196 33 L196 31 L196 29 L196 28 L196 26 L196 24 L196 22 L196 20 L196 19 L196 17 L196 15 L196 13 L196 11 L196 10 L196 8 L196 6 L196 4 L196 2 L196 1 L196 -1 M196 -1 Z" style="fill:none; fill-rule:evenodd; clip-path:url(#clipPath2);"></path></g></g></svg>