<svg xmlns:xlink="http://www.w3.org/1999/xlink" style="fill-opacity:1; color-rendering:auto; color-interpolation:auto; stroke:black; text-rendering:auto; stroke-linecap:square; stroke-miterlimit:10; stroke-opacity:1; shape-rendering:auto; fill:black; stroke-dasharray:none; font-weight:normal; stroke-width:1; font-family:'Dialog'; font-style:normal; stroke-linejoin:miter; font-size:12; stroke-dashoffset:0; image-rendering:auto;" xmlns="http://www.w3.org/2000/svg" id="generatedSVG"><!--Generated by the Batik Graphics2D SVG Generator--><defs id="genericDefs"></defs><g><defs id="defs1"><clipPath clipPathUnits="userSpaceOnUse" id="clipPath1"><path d="M0 0 L400 0 L400 400 L0 400 L0 0 Z"></path></clipPath><clipPath clipPathUnits="userSpaceOnUse" id="clipPath2"><path d="M0 0 L358 0 L358 358 L0 358 L0 0 Z"></path></clipPath></defs><g><rect x="0" y="0" width="400" style="clip-path:url(#clipPath1); stroke:none;" height="400"></rect><line x1="179" x2="179" y1="358" style="clip-path:url(#clipPath1); fill:none; stroke:white;" y2="0"></line><line x1="0" x2="358" y1="179" style="clip-path:url(#clipPath1); fill:none; stroke:white;" y2="179"></line></g><g style="fill:fuchsia; stroke-dasharray:1; stroke-miterlimit:1; stroke-linecap:butt; stroke:fuchsia;"><line x1="0" x2="0" y1="0" style="fill:none; clip-path:url(#clipPath1);" y2="358"></line><text x="0" y="372" style="fill:white; clip-path:url(#clipPath1); stroke:none;" xml:space="preserve">-10.0</text><line x1="35" x2="35" y1="0" style="fill:none; clip-path:url(#clipPath1);" y2="358"></line><text x="35" y="372" style="fill:white; clip-path:url(#clipPath1); stroke:none;" xml:space="preserve">-8.0</text><line x1="71" x2="71" y1="0" style="fill:none; clip-path:url(#clipPath1);" y2="358"></line><text x="71" y="372" style="fill:white; clip-path:url(#clipPath1); stroke:none;" xml:space="preserve">-6.0</text><line x1="107" x2="107" y1="0" style="fill:none; clip-path:url(#clipPath1);" y2="358"></line><text x="107" y="372" style="fill:white; clip-path:url(#clipPath1); stroke:none;" xml:space="preserve">-4.0</text><line x1="143" x2="143" y1="0" style="fill:none; clip-path:url(#clipPath1);" y2="358"></line><text x="143" y="372" style="fill:white; clip-path:url(#clipPath1); stroke:none;" xml:space="preserve">-2.0</text><text x="179" y="372" style="fill:white; clip-path:url(#clipPath1); stroke:none;" xml:space="preserve">0.0</text><line x1="214" x2="214" y1="0" style="fill:none; clip-path:url(#clipPath1);" y2="358"></line><text x="214" y="372" style="fill:white; clip-path:url(#clipPath1); stroke:none;" xml:space="preserve">2.0</text><line x1="250" x2="250" y1="0" style="fill:none; clip-path:url(#clipPath1);" y2="358"></line><text x="250" y="372" style="fill:white; clip-path:url(#clipPath1); stroke:none;" xml:space="preserve">4.0</text><line x1="286" x2="286" y1="0" style="fill:none; clip-path:url(#clipPath1);" y2="358"></line><text x="286" y="372" style="fill:white; clip-path:url(#clipPath1); stroke:none;" xml:space="preserve">6.0</text><line x1="322" x2="322" y1="0" style="fill:none; clip-path:url(#clipPath1);" y2="358"></line><text x="322" y="372" style="fill:white; clip-path:url(#clipPath1); stroke:none;" xml:space="preserve">8.0</text><line x1="358" x2="358" y1="0" style="fill:none; clip-path:url(#clipPath1);" y2="358"></line><text x="358" y="372" style="fill:white; clip-path:url(#clipPath1); stroke:none;" xml:space="preserve">10.0</text><line x1="0" x2="358" y1="358" style="fill:none; clip-path:url(#clipPath1);" y2="358"></line><text x="358" y="355" style="fill:white; clip-path:url(#clipPath1); stroke:none;" xml:space="preserve">-10.0</text><line x1="0" x2="358" y1="322" style="fill:none; clip-path:url(#clipPath1);" y2="322"></line><text x="358" y="320" style="fill:white; clip-path:url(#clipPath1); stroke:none;" xml:space="preserve">-8.0</text><line x1="0" x2="358" y1="286" style="fill:none; clip-path:url(#clipPath1);" y2="286"></line><text x="358" y="286" style="fill:white; clip-path:url(#clipPath1); stroke:none;" xml:space="preserve">-6.0</text><line x1="0" x2="358" y1="250" style="fill:none; clip-path:url(#clipPath1);" y2="250"></line><text x="358" y="252" style="fill:white; clip-path:url(#clipPath1); stroke:none;" xml:space="preserve">-4.0</text><line x1="0" x2="358" y1="214" style="fill:none; clip-path:url(#clipPath1);" y2="214"></line><text x="358" y="217" style="fill:white; clip-path:url(#clipPath1); stroke:none;" xml:space="preserve">-2.0</text><text x="358" y="184" style="fill:white; clip-path:url(#clipPath1); stroke:none;" xml:space="preserve">0.0</text><line x1="0" x2="358" y1="143" style="fill:none; clip-path:url(#clipPath1);" y2="143"></line><text x="358" y="150" style="fill:white; clip-path:url(#clipPath1); stroke:none;" xml:space="preserve">2.0</text><line x1="0" x2="358" y1="107" style="fill:none; clip-path:url(#clipPath1);" y2="107"></line><text x="358" y="115" style="fill:white; clip-path:url(#clipPath1); stroke:none;" xml:space="preserve">4.0</text><line x1="0" x2="358" y1="71" style="fill:none; clip-path:url(#clipPath1);" y2="71"></line><text x="358" y="81" style="fill:white; clip-path:url(#clipPath1); stroke:none;" xml:space="preserve">6.0</text><line x1="0" x2="358" y1="35" style="fill:none; clip-path:url(#clipPath1);" y2="35"></line><text x="358" y="47" style="fill:white; clip-path:url(#clipPath1); stroke:none;" xml:space="preserve">8.0</text><line x1="0" x2="358" y1="0" style="fill:none; clip-path:url(#clipPath1);" y2="0"></line><text x="358" y="14" style="fill:white; clip-path:url(#clipPath1); stroke:none;" xml:space="preserve">10.0</text></g><g style="fill:yellow; text-rendering:optimizeLegibility; stroke-width:2; stroke:yellow;"><path d="M0 -1 L0 -1 L1 -1 L2 -1 L3 -1 L4 -1 L5 -1 L6 -1 L7 -1 L8 -1 L9 -1 L10 -1 L11 -1 L12 -1 L13 -1 L14 -1 L15 -1 L16 -1 L17 -1 L18 -1 L19 -1 L20 -1 L21 -1 L22 -1 L23 -1 L24 -1 L25 -1 L26 -1 L27 -1 L28 -1 L29 -1 L30 -1 L31 -1 L32 -1 L33 -1 L34 -1 L35 -1 L36 -1 L37 -1 L38 -1 L39 -1 L40 -1 L41 -1 L42 -1 L43 -1 L44 -1 L45 -1 L46 -1 L47 -1 L48 -1 L49 -1 L50 -1 L51 -1 L52 -1 L53 -1 L54 -1 L55 -1 L56 -1 L57 -1 L58 -1 L59 -1 L60 -1 L61 -1 L62 -1 L63 -1 L64 -1 L65 -1 L66 1 L66 3 L67 5 L68 7 L68 9 L69 11 L69 12 L70 14 L71 16 L71 18 L72 20 L72 21 L73 23 L74 25 L74 27 L75 28 L75 30 L76 32 L77 33 L77 35 L78 37 L78 39 L79 40 L80 42 L80 44 L81 45 L81 47 L82 48 L83 50 L83 52 L84 53 L84 55 L85 56 L86 58 L86 59 L87 61 L87 62 L88 64 L89 66 L89 67 L90 68 L90 70 L91 71 L92 73 L92 74 L93 76 L93 77 L94 79 L95 80 L95 81 L96 83 L96 84 L97 86 L98 87 L98 88 L99 90 L99 91 L100 92 L101 94 L101 95 L102 96 L102 97 L103 99 L103 100 L104 101 L105 102 L105 104 L106 105 L106 106 L107 107 L108 108 L108 110 L109 111 L109 112 L110 113 L111 114 L111 115 L112 116 L112 118 L113 119 L114 120 L114 121 L115 122 L115 123 L116 124 L117 125 L117 126 L118 127 L118 128 L119 129 L120 130 L120 131 L121 132 L121 133 L122 134 L123 135 L123 136 L124 137 L124 138 L125 139 L126 139 L126 140 L127 141 L127 142 L128 143 L129 144 L129 145 L130 145 L130 146 L131 147 L132 148 L132 149 L133 149 L133 150 L134 151 L135 152 L136 153 L136 154 L137 154 L138 155 L138 156 L139 156 L139 157 L140 158 L141 158 L141 159 L142 160 L143 161 L144 161 L144 162 L145 163 L146 164 L147 164 L147 165 L148 165 L148 166 L149 166 L150 167 L151 168 L152 169 L153 169 L154 170 L155 171 L156 171 L157 172 L158 173 L159 173 L160 174 L161 174 L162 175 L163 175 L164 176 L165 176 L166 176 L167 177 L168 177 L169 177 L170 177 L170 178 L171 178 L172 178 L173 178 L174 178 L175 178 L176 178 L177 178 L178 178 L179 178 L180 178 L181 178 L182 178 L183 178 L184 178 L185 178 L186 178 L187 178 L187 177 L188 177 L189 177 L190 177 L191 176 L192 176 L193 176 L194 175 L195 175 L196 174 L197 174 L198 173 L199 173 L200 172 L201 171 L202 171 L203 170 L204 169 L205 169 L206 168 L207 167 L208 166 L209 166 L209 165 L210 165 L210 164 L211 164 L212 163 L213 162 L213 161 L214 161 L215 160 L216 159 L216 158 L217 158 L218 157 L218 156 L219 156 L219 155 L220 154 L221 154 L221 153 L222 152 L223 151 L224 150 L224 149 L225 149 L225 148 L226 147 L227 146 L227 145 L228 145 L228 144 L229 143 L230 142 L230 141 L231 140 L231 139 L232 139 L233 138 L233 137 L234 136 L234 135 L235 134 L236 133 L236 132 L237 131 L237 130 L238 129 L239 128 L239 127 L240 126 L240 125 L241 124 L242 123 L242 122 L243 121 L243 120 L244 119 L245 118 L245 116 L246 115 L246 114 L247 113 L248 112 L248 111 L249 110 L249 108 L250 107 L251 106 L251 105 L252 104 L252 102 L253 101 L254 100 L254 99 L255 97 L255 96 L256 95 L256 94 L257 92 L258 91 L258 90 L259 88 L259 87 L260 86 L261 84 L261 83 L262 81 L262 80 L263 79 L264 77 L264 76 L265 74 L265 73 L266 71 L267 70 L267 68 L268 67 L268 66 L269 64 L270 62 L270 61 L271 59 L271 58 L272 56 L273 55 L273 53 L274 52 L274 50 L275 48 L276 47 L276 45 L277 44 L277 42 L278 40 L279 39 L279 37 L280 35 L280 33 L281 32 L282 30 L282 28 L283 27 L283 25 L284 23 L285 21 L285 20 L286 18 L286 16 L287 14 L288 12 L288 11 L289 9 L289 7 L290 5 L291 3 L291 1 L292 -1 L293 -1 L294 -1 L295 -1 L296 -1 L297 -1 L298 -1 L299 -1 L300 -1 L301 -1 L302 -1 L303 -1 L304 -1 L305 -1 L306 -1 L307 -1 L308 -1 L309 -1 L310 -1 L311 -1 L312 -1 L313 -1 L314 -1 L315 -1 L316 -1 L317 -1 L318 -1 L319 -1 L320 -1 L321 -1 L322 -1 L323 -1 L324 -1 L325 -1 L326 -1 L327 -1 L328 -1 L329 -1 L330 -1 L331 -1 L332 -1 L333 -1 L334 -1 L335 -1 L336 -1 L337 -1 L338 -1 L339 -1 L340 -1 L341 -1 L342 -1 L343 -1 L344 -1 L345 -1 L346 -1 L347 -1 L348 -1 L349 -1 L350 -1 L351 -1 L352 -1 L353 -1 L354 -1 L355 -1 L356 -1 L357 -1 M357 -1 Z" style="fill:none; fill-rule:evenodd; clip-path:url(#clipPath2);"></path></g></g></svg>