<svg xmlns:xlink="http://www.w3.org/1999/xlink" style="fill-opacity:1; color-rendering:auto; color-interpolation:auto; stroke:black; text-rendering:auto; stroke-linecap:square; stroke-miterlimit:10; stroke-opacity:1; shape-rendering:auto; fill:black; stroke-dasharray:none; font-weight:normal; stroke-width:1; font-family:'Dialog'; font-style:normal; stroke-linejoin:miter; font-size:12; stroke-dashoffset:0; image-rendering:auto;" xmlns="http://www.w3.org/2000/svg" id="generatedSVG"><!--Generated by the Batik Graphics2D SVG Generator--><defs id="genericDefs"></defs><g><defs id="defs1"><clipPath clipPathUnits="userSpaceOnUse" id="clipPath1"><path d="M0 0 L400 0 L400 400 L0 400 L0 0 Z"></path></clipPath><clipPath clipPathUnits="userSpaceOnUse" id="clipPath2"><path d="M0 0 L358 0 L358 358 L0 358 L0 0 Z"></path></clipPath></defs><g><rect x="0" y="0" width="400" style="clip-path:url(#clipPath1); stroke:none;" height="400"></rect><line x1="179" x2="179" y1="358" style="clip-path:url(#clipPath1); fill:none; stroke:white;" y2="0"></line><line x1="0" x2="358" y1="179" style="clip-path:url(#clipPath1); fill:none; stroke:white;" y2="179"></line></g><g style="fill:fuchsia; stroke-dasharray:1; stroke-miterlimit:1; stroke-linecap:butt; stroke:fuchsia;"><line x1="0" x2="0" y1="0" style="fill:none; clip-path:url(#clipPath1);" y2="358"></line><text x="0" y="372" style="fill:white; clip-path:url(#clipPath1); stroke:none;" xml:space="preserve">-10.0</text><line x1="35" x2="35" y1="0" style="fill:none; clip-path:url(#clipPath1);" y2="358"></line><text x="35" y="372" style="fill:white; clip-path:url(#clipPath1); stroke:none;" xml:space="preserve">-8.0</text><line x1="71" x2="71" y1="0" style="fill:none; clip-path:url(#clipPath1);" y2="358"></line><text x="71" y="372" style="fill:white; clip-path:url(#clipPath1); stroke:none;" xml:space="preserve">-6.0</text><line x1="107" x2="107" y1="0" style="fill:none; clip-path:url(#clipPath1);" y2="358"></line><text x="107" y="372" style="fill:white; clip-path:url(#clipPath1); stroke:none;" xml:space="preserve">-4.0</text><line x1="143" x2="143" y1="0" style="fill:none; clip-path:url(#clipPath1);" y2="358"></line><text x="143" y="372" style="fill:white; clip-path:url(#clipPath1); stroke:none;" xml:space="preserve">-2.0</text><text x="179" y="372" style="fill:white; clip-path:url(#clipPath1); stroke:none;" xml:space="preserve">0.0</text><line x1="214" x2="214" y1="0" style="fill:none; clip-path:url(#clipPath1);" y2="358"></line><text x="214" y="372" style="fill:white; clip-path:url(#clipPath1); stroke:none;" xml:space="preserve">2.0</text><line x1="250" x2="250" y1="0" style="fill:none; clip-path:url(#clipPath1);" y2="358"></line><text x="250" y="372" style="fill:white; clip-path:url(#clipPath1); stroke:none;" xml:space="preserve">4.0</text><line x1="286" x2="286" y1="0" style="fill:none; clip-path:url(#clipPath1);" y2="358"></line><text x="286" y="372" style="fill:white; clip-path:url(#clipPath1); stroke:none;" xml:space="preserve">6.0</text><line x1="322" x2="322" y1="0" style="fill:none; clip-path:url(#clipPath1);" y2="358"></line><text x="322" y="372" style="fill:white; clip-path:url(#clipPath1); stroke:none;" xml:space="preserve">8.0</text><line x1="358" x2="358" y1="0" style="fill:none; clip-path:url(#clipPath1);" y2="358"></line><text x="358" y="372" style="fill:white; clip-path:url(#clipPath1); stroke:none;" xml:space="preserve">10.0</text><line x1="0" x2="358" y1="358" style="fill:none; clip-path:url(#clipPath1);" y2="358"></line><text x="358" y="355" style="fill:white; clip-path:url(#clipPath1); stroke:none;" xml:space="preserve">-10.0</text><line x1="0" x2="358" y1="322" style="fill:none; clip-path:url(#clipPath1);" y2="322"></line><text x="358" y="320" style="fill:white; clip-path:url(#clipPath1); stroke:none;" xml:space="preserve">-8.0</text><line x1="0" x2="358" y1="286" style="fill:none; clip-path:url(#clipPath1);" y2="286"></line><text x="358" y="286" style="fill:white; clip-path:url(#clipPath1); stroke:none;" xml:space="preserve">-6.0</text><line x1="0" x2="358" y1="250" style="fill:none; clip-path:url(#clipPath1);" y2="250"></line><text x="358" y="252" style="fill:white; clip-path:url(#clipPath1); stroke:none;" xml:space="preserve">-4.0</text><line x1="0" x2="358" y1="214" style="fill:none; clip-path:url(#clipPath1);" y2="214"></line><text x="358" y="217" style="fill:white; clip-path:url(#clipPath1); stroke:none;" xml:space="preserve">-2.0</text><text x="358" y="184" style="fill:white; clip-path:url(#clipPath1); stroke:none;" xml:space="preserve">0.0</text><line x1="0" x2="358" y1="143" style="fill:none; clip-path:url(#clipPath1);" y2="143"></line><text x="358" y="150" style="fill:white; clip-path:url(#clipPath1); stroke:none;" xml:space="preserve">2.0</text><line x1="0" x2="358" y1="107" style="fill:none; clip-path:url(#clipPath1);" y2="107"></line><text x="358" y="115" style="fill:white; clip-path:url(#clipPath1); stroke:none;" xml:space="preserve">4.0</text><line x1="0" x2="358" y1="71" style="fill:none; clip-path:url(#clipPath1);" y2="71"></line><text x="358" y="81" style="fill:white; clip-path:url(#clipPath1); stroke:none;" xml:space="preserve">6.0</text><line x1="0" x2="358" y1="35" style="fill:none; clip-path:url(#clipPath1);" y2="35"></line><text x="358" y="47" style="fill:white; clip-path:url(#clipPath1); stroke:none;" xml:space="preserve">8.0</text><line x1="0" x2="358" y1="0" style="fill:none; clip-path:url(#clipPath1);" y2="0"></line><text x="358" y="14" style="fill:white; clip-path:url(#clipPath1); stroke:none;" xml:space="preserve">10.0</text></g><g style="fill:yellow; text-rendering:optimizeLegibility; stroke-width:2; stroke:yellow;"><path d="M196 358 L196 356 L196 355 L196 354 L196 353 L196 352 L196 350 L196 349 L196 348 L196 347 L196 346 L196 344 L196 343 L196 342 L196 341 L196 340 L196 338 L196 337 L196 336 L196 335 L196 334 L196 332 L196 331 L196 330 L196 329 L196 328 L196 326 L196 325 L196 324 L196 323 L196 322 L196 320 L196 319 L196 318 L196 317 L196 316 L196 314 L196 313 L196 312 L196 311 L196 310 L196 308 L196 307 L196 306 L196 305 L196 304 L196 303 L196 301 L196 300 L196 299 L196 298 L196 297 L196 295 L196 294 L196 293 L196 292 L196 291 L196 289 L196 288 L196 287 L196 286 L196 285 L196 283 L196 282 L196 281 L196 280 L196 279 L196 277 L196 276 L196 275 L196 274 L196 273 L196 271 L196 270 L196 269 L196 268 L196 267 L196 265 L196 264 L196 263 L196 262 L196 261 L196 259 L196 258 L196 257 L196 256 L196 255 L196 254 L196 252 L196 251 L196 250 L196 249 L196 248 L196 246 L196 245 L196 244 L196 243 L196 242 L196 240 L196 239 L196 238 L196 237 L196 236 L196 234 L196 233 L196 232 L196 231 L196 230 L196 228 L196 227 L196 226 L196 225 L196 224 L196 222 L196 221 L196 220 L196 219 L196 218 L196 216 L196 215 L196 214 L196 213 L196 212 L196 210 L196 209 L196 208 L196 207 L196 206 L196 204 L196 203 L196 202 L196 201 L196 200 L196 199 L196 197 L196 196 L196 195 L196 194 L196 193 L196 191 L196 190 L196 189 L196 188 L196 187 L196 185 L196 184 L196 183 L196 182 L196 181 L196 179 L196 178 L196 177 L196 176 L196 175 L196 173 L196 172 L196 171 L196 170 L196 169 L196 167 L196 166 L196 165 L196 164 L196 163 L196 161 L196 160 L196 159 L196 158 L196 157 L196 155 L196 154 L196 153 L196 152 L196 151 L196 150 L196 148 L196 147 L196 146 L196 145 L196 144 L196 142 L196 141 L196 140 L196 139 L196 138 L196 136 L196 135 L196 134 L196 133 L196 132 L196 130 L196 129 L196 128 L196 127 L196 126 L196 124 L196 123 L196 122 L196 121 L196 120 L196 118 L196 117 L196 116 L196 115 L196 114 L196 112 L196 111 L196 110 L196 109 L196 108 L196 106 L196 105 L196 104 L196 103 L196 102 L196 101 L196 99 L196 98 L196 97 L196 96 L196 95 L196 93 L196 92 L196 91 L196 90 L196 89 L196 87 L196 86 L196 85 L196 84 L196 83 L196 81 L196 80 L196 79 L196 78 L196 77 L196 75 L196 74 L196 73 L196 72 L196 71 L196 69 L196 68 L196 67 L196 66 L196 65 L196 63 L196 62 L196 61 L196 60 L196 59 L196 57 L196 56 L196 55 L196 54 L196 53 L196 51 L196 50 L196 49 L196 48 L196 47 L196 46 L196 44 L196 43 L196 42 L196 41 L196 40 L196 38 L196 37 L196 36 L196 35 L196 34 L196 32 L196 31 L196 30 L196 29 L196 28 L196 26 L196 25 L196 24 L196 23 L196 22 L196 20 L196 19 L196 18 L196 17 L196 16 L196 14 L196 13 L196 12 L196 11 L196 10 L196 8 L196 7 L196 6 L196 5 L196 4 L196 2 L196 1 L196 0 L196 -1 M196 -1 Z" style="fill:none; fill-rule:evenodd; clip-path:url(#clipPath2);"></path></g></g></svg>